<svg width="60" height="60" viewBox="0 0 60 60" fill="none" xmlns="http://www.w3.org/2000/svg">
<path fill-rule="evenodd" clip-rule="evenodd" d="M32.0571 9.2679C31.9197 8.26951 31.0512 7.5 30.0003 7.5C28.8538 7.5 27.9245 8.41578 27.9245 9.54545V45.4998L14.7966 32.5117L14.5642 32.3132C13.7529 31.7174 12.5995 31.7811 11.861 32.5057C11.0487 33.3029 11.046 34.598 11.855 35.3984L28.5011 51.8693C28.5962 51.9671 28.7011 52.0557 28.8141 52.1334C29.6249 52.6916 30.7499 52.6133 31.4724 51.8983L48.1452 35.3983L48.3457 35.1685C48.9469 34.3665 48.8774 33.2302 48.1388 32.5056C47.3265 31.7085 46.0121 31.7113 45.2032 32.5119L32.0761 45.5031V9.54545L32.0571 9.2679Z" fill="#071141"/>
</svg>
