<svg width="10" height="17" viewBox="0 0 10 17" fill="none" xmlns="http://www.w3.org/2000/svg">
<path d="M0.724204 2.86495C0.149204 2.30912 0.149204 1.40829 0.705037 0.833288C0.992537 0.545788 1.3567 0.411621 1.74004 0.411621C2.1042 0.411621 2.46837 0.545788 2.7367 0.833288L9.42587 7.48412C9.6942 7.75246 9.84754 8.11662 9.84754 8.49995C9.84754 8.88329 9.6942 9.24746 9.42587 9.51579L2.7367 16.1666C2.18087 16.7416 1.28004 16.7416 0.705037 16.1666C0.149204 15.6108 0.149204 14.6908 0.724204 14.135L6.37837 8.49995L0.724204 2.86495Z" fill="#3DABEA"/>
<path d="M0.794794 2.79412L0.794802 2.79412L0.793706 2.79306C0.260021 2.27716 0.258117 1.44013 0.776347 0.903399C1.04354 0.636524 1.38136 0.511621 1.74004 0.511621C2.07979 0.511621 2.41632 0.636578 2.6636 0.90152L2.66355 0.901567L2.6662 0.904201L9.35516 7.55483C9.35517 7.55484 9.35518 7.55486 9.3552 7.55487C9.60497 7.80466 9.74754 8.14346 9.74754 8.49996C9.74754 8.85645 9.60497 9.19525 9.3552 9.44504C9.35518 9.44505 9.35517 9.44507 9.35516 9.44508L2.6662 16.0957L2.66618 16.0957L2.6648 16.0971C2.14893 16.6308 1.31237 16.6325 0.775748 16.0959C0.259169 15.5793 0.259162 14.7236 0.793706 14.2069L0.793714 14.2069L0.794794 14.2058L6.44896 8.57079L6.52003 8.49996L6.44896 8.42912L0.794794 2.79412Z" stroke="url(#paint0_linear_684_3249)" stroke-opacity="0.5" stroke-width="0.2"/>
<defs>
<linearGradient id="paint0_linear_684_3249" x1="1.32003" y1="5.84133" x2="9.43541" y2="5.86778" gradientUnits="userSpaceOnUse">
<stop stop-color="white"/>
<stop offset="1" stop-color="white" stop-opacity="0"/>
</linearGradient>
</defs>
</svg>
