<svg width="108" height="112" viewBox="0 0 108 112" fill="none" xmlns="http://www.w3.org/2000/svg">
<path d="M6.75789 40.7177C6.61156 40.4204 6.40728 40.1616 6.14531 39.9412C5.88335 39.7212 5.52671 39.4768 5.07567 39.2087L2.26497 37.5436C2.06298 37.4331 1.9419 37.2986 1.90115 37.139C1.8607 36.9799 1.88796 36.7813 1.98264 36.5436L3.19259 33.503C3.30048 33.2324 3.42242 33.0863 3.55842 33.0652C3.69442 33.0438 3.84792 33.0678 4.01893 33.1369L8.98958 35.1468L9.15571 34.7998C9.24092 34.6341 9.33733 34.5516 9.44579 34.5525C9.55396 34.5534 9.64348 34.5727 9.7132 34.6106L11.8209 35.6199C11.9271 35.6627 11.9618 35.7292 11.9257 35.8197L11.6562 36.4967C11.627 36.5705 11.5578 36.5901 11.4485 36.5557L9.67274 35.9233L7.82094 40.576L9.5551 41.4201C9.61191 41.443 9.64491 41.4731 9.6538 41.5098C9.6627 41.5468 9.66069 41.5818 9.64749 41.6145L9.37807 42.2918C9.36516 42.3244 9.34622 42.3479 9.32184 42.3617C9.29745 42.3756 9.25097 42.3736 9.18268 42.3554L6.94267 41.607C6.84168 41.5757 6.75818 41.5182 6.69248 41.4346C6.62648 41.3505 6.61816 41.2235 6.66694 41.0526L6.75789 40.7177ZM92.8749 83.3764C92.499 82.8568 92.3068 82.3981 92.297 82.0005C92.2878 81.6026 92.4256 81.2023 92.7108 80.7989C92.7822 80.698 92.8786 80.5774 92.9997 80.4365C93.1211 80.2954 93.2702 80.1531 93.4476 80.0091C93.5574 79.9146 93.6453 79.9123 93.7107 80.0025L94.0977 80.4603C94.1448 80.5158 94.1634 80.5618 94.154 80.5982C94.1442 80.6346 94.1144 80.6731 94.0644 80.7133C93.9319 80.8241 93.8363 80.9102 93.7769 80.971C93.7178 81.0317 93.6553 81.1086 93.589 81.202C93.416 81.447 93.3239 81.6798 93.3136 81.9001C93.303 82.1208 93.4074 82.3805 93.6269 82.6792C93.643 82.7018 93.6803 82.7555 93.7388 82.8409C93.7968 82.9265 93.859 83.0173 93.9256 83.1139C93.9919 83.2104 94.0556 83.2995 94.1161 83.3811C94.1769 83.4629 94.2154 83.515 94.2317 83.5372L94.3769 83.3322C94.4481 83.2316 94.5267 83.1549 94.6125 83.1023C94.698 83.0499 94.8541 83.0618 95.0804 83.1376L101.335 85.1249C101.429 85.1599 101.445 85.2203 101.384 85.3065L100.872 86.03C100.816 86.1093 100.745 86.1338 100.658 86.1043C100.598 86.0827 100.478 86.0428 100.298 85.9843C100.119 85.9259 99.9085 85.8583 99.666 85.7822C99.4236 85.7056 99.1645 85.6226 98.8888 85.5329C98.6128 85.4433 98.3537 85.36 98.1115 85.2836C97.8693 85.2076 97.6567 85.1385 97.4734 85.0774C97.2903 85.0167 97.1721 84.978 97.1193 84.9615L94.844 84.1567L94.7981 84.2214C94.84 84.2845 94.9381 84.4198 95.0922 84.6283C95.2463 84.8368 95.4118 85.056 95.5883 85.2865C95.765 85.5164 95.9226 85.7272 96.0614 85.9196C96.2003 86.1119 96.2743 86.2163 96.2835 86.2339C96.2924 86.2515 96.342 86.3224 96.4321 86.4467C96.5219 86.5708 96.6344 86.7278 96.7698 86.9173C96.905 87.107 97.0522 87.3134 97.212 87.537C97.3718 87.7602 97.5313 87.9806 97.6897 88.1978C97.8487 88.415 97.9939 88.6174 98.1256 88.8042C98.2573 88.991 98.3603 89.1385 98.4346 89.2464C98.4911 89.3193 98.4911 89.3953 98.4349 89.4748L97.9459 90.1657C97.8848 90.2522 97.8229 90.2562 97.7597 90.1781L92.8749 83.3764ZM94.6925 92.5044C94.9112 92.2507 95.0145 92.0191 95.0033 91.81C94.9915 91.6009 94.8716 91.3962 94.64 91.1935L91.0322 88.0344C90.9594 87.9708 90.9229 87.9155 90.9229 87.8684C90.9229 87.8215 90.9542 87.7611 91.0176 87.6877L91.4316 87.207C91.4893 87.1402 91.5441 87.1006 91.5961 87.0876C91.648 87.0743 91.7103 87.0997 91.7831 87.1634L95.25 90.199C95.4552 90.3788 95.6336 90.5761 95.7857 90.7912C95.9372 91.0058 96.0342 91.234 96.0761 91.4754C96.1177 91.7169 96.0936 91.9772 96.0043 92.2562C95.9148 92.535 95.732 92.8346 95.456 93.1553L93.661 95.2378C93.5976 95.311 93.5411 95.3433 93.4906 95.3344C93.4384 95.324 93.3833 95.2933 93.3239 95.2412L92.9397 94.9049C92.8734 94.8471 92.8358 94.7962 92.8249 94.7517C92.8158 94.7083 92.843 94.6501 92.9061 94.5767L94.6925 92.5044ZM91.9013 96.6207C91.9584 96.6881 91.9823 96.743 91.9728 96.7861C91.963 96.8295 91.93 96.8755 91.8769 96.9214L91.3309 97.3934C91.271 97.4454 91.2193 97.4726 91.1786 97.4726C91.1384 97.4726 91.0893 97.4391 91.0322 97.372L87.7255 93.4865L87.6856 93.5209C87.7427 93.9142 87.7963 94.2725 87.848 94.5949C87.8982 94.9185 87.9427 95.2731 87.982 95.6585L88.4749 99.3035C88.5056 99.475 88.5108 99.6103 88.4907 99.7092C88.4709 99.8078 88.396 99.9134 88.2629 100.028L88.0032 100.253C87.8916 100.349 87.7682 100.398 87.6345 100.397C87.5008 100.396 87.3769 100.329 87.263 100.194L83.2274 95.4532C83.176 95.3928 83.1548 95.3442 83.164 95.3072C83.1729 95.2702 83.2073 95.2259 83.2673 95.1742L83.8167 94.699C83.8698 94.6533 83.9169 94.627 83.9579 94.6209C83.9986 94.6146 84.0451 94.6415 84.0965 94.7019L87.3691 98.5472L87.4291 98.4955C87.4061 98.3055 87.382 98.1314 87.3568 97.9726C87.3315 97.8139 87.3063 97.6551 87.281 97.4966C87.2558 97.3376 87.2305 97.1756 87.2056 97.0111C87.1809 96.846 87.1571 96.6687 87.1341 96.4787L86.6704 92.756C86.6466 92.5787 86.6509 92.4379 86.6839 92.3338C86.7166 92.2296 86.7895 92.1287 86.9029 92.031L87.1324 91.8323C87.2523 91.7288 87.3757 91.677 87.5037 91.6776C87.6311 91.6779 87.7519 91.7453 87.8661 91.8797L91.9013 96.6207ZM83.1077 103.777C82.6862 104.047 82.284 104.222 81.9015 104.299C81.519 104.377 81.1604 104.369 80.8253 104.274C80.4901 104.18 80.1788 104.013 79.8922 103.772C79.6053 103.532 79.3462 103.229 79.1155 102.863C79.0024 102.684 78.933 102.524 78.9066 102.384C78.8802 102.244 78.8862 102.117 78.9238 102.004C78.9617 101.891 79.0222 101.789 79.1054 101.699C79.1889 101.609 79.2862 101.528 79.397 101.457L82.5944 99.4061C82.3729 99.0556 82.1365 98.7878 81.8849 98.6036C81.6332 98.4188 81.3779 98.3026 81.1222 98.252C80.8666 98.2008 80.6101 98.2106 80.357 98.2789C80.1019 98.3483 79.8529 98.4608 79.6087 98.6172C79.3625 98.7751 79.1419 98.9611 78.9433 99.1777C78.7468 99.3928 78.5945 99.5927 78.4909 99.7743C78.4349 99.8833 78.3531 99.9099 78.2447 99.8535L77.715 99.5331C77.5974 99.462 77.5721 99.3732 77.6401 99.2665C77.8028 98.9319 78.0203 98.6378 78.292 98.3847C78.564 98.1317 78.8481 97.9105 79.1442 97.7207C79.5585 97.4547 79.9679 97.276 80.3728 97.184C80.7774 97.0921 81.1722 97.0958 81.5569 97.1947C81.9417 97.2936 82.3155 97.4943 82.6779 97.7965C83.04 98.0984 83.3883 98.5143 83.7226 99.0441C84.0336 99.5366 84.2454 100.016 84.3587 100.483C84.4715 100.95 84.4956 101.388 84.431 101.797C84.3668 102.205 84.2224 102.577 83.9986 102.915C83.7748 103.252 83.4779 103.54 83.1077 103.777ZM79.9691 102.19C80.1151 102.422 80.2778 102.629 80.4563 102.813C80.6348 102.997 80.8324 103.133 81.0499 103.218C81.266 103.305 81.5015 103.332 81.7563 103.3C82.0134 103.266 82.2889 103.155 82.5867 102.964C82.8309 102.807 83.0185 102.619 83.1462 102.4C83.2756 102.181 83.3536 101.951 83.3817 101.707C83.4102 101.464 83.397 101.212 83.339 100.956C83.2813 100.7 83.1869 100.451 83.0555 100.211L79.9691 102.19ZM69.8904 103.168C69.6083 103.264 69.3449 103.397 69.1007 103.565C68.8563 103.733 68.6583 103.895 68.5068 104.05C68.4463 104.117 68.3958 104.146 68.3556 104.137C68.3151 104.127 68.2756 104.105 68.2365 104.072L67.8084 103.629C67.7043 103.541 67.6948 103.443 67.7798 103.339C68.0354 103.053 68.3387 102.813 68.6913 102.622C69.0428 102.429 69.3894 102.275 69.73 102.158C70.6432 101.844 71.436 101.887 72.1086 102.286C72.7814 102.685 73.3059 103.441 73.6826 104.554C73.8637 105.09 73.9589 105.597 73.9678 106.075C73.9764 106.553 73.9061 106.988 73.7561 107.381C73.6063 107.773 73.3762 108.114 73.066 108.402C72.7559 108.691 72.3725 108.914 71.9157 109.071C71.5838 109.185 71.255 109.261 70.9293 109.298C70.6036 109.335 70.2725 109.323 69.9366 109.261C69.7977 109.234 69.7432 109.155 69.7724 109.023L69.8602 108.419C69.868 108.36 69.8829 108.315 69.905 108.284C69.9271 108.253 69.9825 108.246 70.0711 108.262C70.3015 108.285 70.5431 108.287 70.7953 108.265C71.0475 108.244 71.3066 108.188 71.572 108.096C71.9043 107.982 72.1651 107.815 72.3553 107.596C72.5452 107.376 72.6781 107.125 72.7521 106.838C72.8267 106.551 72.8488 106.247 72.8175 105.921C72.786 105.596 72.7142 105.268 72.6012 104.933C72.4879 104.598 72.3533 104.297 72.1961 104.024C72.0397 103.753 71.8509 103.531 71.6305 103.358C71.4102 103.187 71.1591 103.081 70.8759 103.039C70.5927 102.996 70.2642 103.039 69.8904 103.168ZM65.2887 103.872C65.2729 103.785 65.2801 103.727 65.3108 103.699C65.3412 103.671 65.3908 103.651 65.46 103.638L66.1715 103.505C66.2407 103.492 66.2943 103.493 66.3331 103.509C66.3712 103.524 66.3985 103.575 66.4146 103.662L67.537 109.778C67.5545 109.874 67.5362 109.994 67.4825 110.139C67.4291 110.284 67.2989 110.376 67.0917 110.414L62.4464 111.28C62.2396 111.319 62.0852 111.28 61.9836 111.164C61.8821 111.048 61.8227 110.942 61.8052 110.847L60.6827 104.731C60.6667 104.644 60.6715 104.586 60.6979 104.559C60.724 104.532 60.776 104.511 60.8534 104.496L61.5653 104.364C61.6342 104.351 61.6881 104.352 61.7265 104.367C61.765 104.383 61.7922 104.434 61.8083 104.521L62.847 110.181L66.3273 109.532L65.2887 103.872ZM56.3944 111.997C55.8948 112.013 55.4607 111.957 55.0923 111.827C54.7239 111.697 54.4198 111.505 54.1793 111.252C53.9386 110.999 53.7555 110.695 53.6304 110.341C53.5053 109.986 53.4359 109.592 53.4224 109.16C53.4158 108.947 53.4368 108.774 53.4853 108.64C53.5335 108.506 53.6029 108.4 53.6924 108.322C53.7822 108.244 53.8858 108.187 54.0029 108.153C54.1205 108.118 54.245 108.099 54.3764 108.094L58.1641 107.974C58.1512 107.558 58.0832 107.207 57.9598 106.919C57.837 106.631 57.6761 106.399 57.4818 106.224C57.2876 106.049 57.0623 105.926 56.8098 105.854C56.5553 105.783 56.2842 105.751 55.9953 105.76C55.7035 105.77 55.4197 105.817 55.1394 105.901C54.8611 105.985 54.6292 106.078 54.4482 106.181C54.3449 106.247 54.2611 106.227 54.1963 106.123L53.9027 105.575C53.8373 105.453 53.8608 105.364 53.9733 105.307C54.2826 105.103 54.6183 104.962 54.9801 104.884C55.3419 104.806 55.6983 104.762 56.0492 104.751C56.5401 104.735 56.9828 104.791 57.3774 104.92C57.7719 105.049 58.1096 105.256 58.3908 105.538C58.6717 105.821 58.8915 106.186 59.0504 106.632C59.2091 107.078 59.2983 107.615 59.3178 108.242C59.3362 108.826 59.2759 109.347 59.1368 109.807C58.9976 110.267 58.7968 110.656 58.5345 110.974C58.2726 111.292 57.9601 111.538 57.5969 111.714C57.2336 111.889 56.8328 111.984 56.3944 111.997ZM54.4975 109.019C54.5061 109.293 54.5406 109.555 54.6014 109.806C54.6616 110.055 54.7629 110.274 54.907 110.459C55.0487 110.645 55.2375 110.789 55.4733 110.892C55.7112 110.996 56.0047 111.041 56.3574 111.03C56.6469 111.021 56.9037 110.955 57.1237 110.833C57.3458 110.711 57.5297 110.553 57.6772 110.358C57.8247 110.163 57.9406 109.94 58.0204 109.69C58.1004 109.44 58.1449 109.178 58.1538 108.903L54.4975 109.019ZM46.0732 105.304L45.699 105.218C45.5183 105.178 45.4141 105.107 45.3866 105.006C45.3587 104.904 45.3542 104.815 45.3722 104.737L45.8023 102.371C45.8193 102.302 45.8425 102.258 45.8712 102.239C45.8999 102.221 45.936 102.214 45.9797 102.219L46.6981 102.307C46.7764 102.317 46.8132 102.379 46.8083 102.494L46.6456 104.398L51.2441 104.959C51.4355 104.983 51.5787 105.062 51.6728 105.198C51.7666 105.334 51.8004 105.512 51.7741 105.732L51.0547 111.722C51.043 111.819 51.014 111.878 50.9672 111.899C50.9205 111.92 50.8579 111.926 50.7796 111.916L50.1395 111.838C50.0436 111.826 49.9799 111.805 49.9484 111.774C49.9165 111.744 49.9065 111.68 49.9182 111.584L50.6091 105.83L47.2128 105.416L46.5216 111.169C46.5102 111.266 46.4832 111.325 46.441 111.346C46.3986 111.368 46.3294 111.373 46.2336 111.361L45.5935 111.283C45.5151 111.274 45.4577 111.253 45.4222 111.222C45.3857 111.191 45.3737 111.128 45.3851 111.031L46.0732 105.304ZM42.4287 110.553C42.4057 110.639 42.3739 110.69 42.3334 110.706C42.2924 110.722 42.2362 110.721 42.1685 110.702L41.4741 110.513C41.3978 110.492 41.3464 110.464 41.3235 110.431C41.3008 110.397 41.3005 110.337 41.3235 110.252L42.6491 105.31L42.5986 105.297C42.3082 105.566 42.0445 105.812 41.8092 106.036C41.5719 106.26 41.3063 106.497 41.0124 106.747L38.3002 109.208C38.1768 109.33 38.0686 109.411 37.9765 109.45C37.8844 109.489 37.7556 109.486 37.5863 109.44L37.2558 109.35C37.114 109.311 37.005 109.236 36.9304 109.124C36.8558 109.012 36.8417 108.871 36.8874 108.7L38.505 102.67C38.5257 102.593 38.5535 102.548 38.5888 102.535C38.6241 102.521 38.68 102.525 38.7561 102.546L39.455 102.736C39.5225 102.755 39.5707 102.779 39.5988 102.81C39.6266 102.84 39.6306 102.894 39.6103 102.971L38.2982 107.862L38.3745 107.882C38.5174 107.756 38.6465 107.638 38.7627 107.528C38.8783 107.418 38.9945 107.307 39.1101 107.197C39.2263 107.086 39.3451 106.974 39.4662 106.861C39.5876 106.747 39.7196 106.628 39.8625 106.502L42.6545 104.02C42.7865 103.901 42.9047 103.825 43.0083 103.794C43.1121 103.762 43.2358 103.767 43.3798 103.806L43.6722 103.885C43.8246 103.927 43.9365 104.001 44.0079 104.107C44.0794 104.214 44.092 104.352 44.0461 104.523L42.4287 110.553ZM31.7572 100.292C31.8286 100.131 31.9354 100.053 32.0771 100.059C32.5089 100.06 32.9476 100.127 33.3929 100.26C33.8385 100.393 34.2534 100.547 34.6376 100.72C35.1578 100.955 35.5603 101.202 35.8441 101.461C36.1279 101.72 36.3238 101.987 36.4334 102.26C36.5433 102.532 36.5824 102.806 36.5502 103.085C36.5187 103.361 36.4429 103.634 36.3244 103.901C36.2025 104.175 36.0363 104.425 35.828 104.646C35.6194 104.866 35.3661 105.03 35.07 105.134C34.7742 105.238 34.4322 105.278 34.046 105.249C33.6603 105.22 33.2268 105.097 32.7465 104.88L31.2815 104.219L31.1641 104.483C31.0789 104.675 31.0198 104.856 30.9885 105.024C30.9572 105.192 30.9684 105.356 31.0229 105.514C31.0769 105.674 31.1848 105.827 31.3466 105.97C31.5081 106.116 31.7368 106.255 32.0329 106.389C32.3132 106.515 32.6222 106.626 32.96 106.72C33.2977 106.814 33.5811 106.874 33.8101 106.9C33.8847 106.905 33.9404 106.92 33.9768 106.946C34.0132 106.973 34.0253 107.022 34.0124 107.093L33.9252 107.679C33.9234 107.726 33.9085 107.766 33.8801 107.797C33.852 107.827 33.8006 107.841 33.7258 107.836C33.3642 107.828 32.9757 107.761 32.5603 107.637C32.1442 107.512 31.7727 107.376 31.4441 107.228C30.6436 106.866 30.1389 106.423 29.9301 105.898C29.7212 105.372 29.7694 104.767 30.0741 104.081L31.7572 100.292ZM31.7018 103.304L33.0951 103.933C33.2394 103.998 33.4099 104.063 33.607 104.127C33.8041 104.192 34.0055 104.22 34.2112 104.211C34.417 104.203 34.6149 104.142 34.8043 104.029C34.994 103.916 35.1532 103.714 35.2823 103.423C35.379 103.205 35.4206 103.004 35.4068 102.819C35.3931 102.633 35.3368 102.467 35.2384 102.321C35.14 102.175 35.0069 102.042 34.8387 101.923C34.6709 101.803 34.4786 101.695 34.2626 101.597C34.1906 101.565 34.0956 101.524 33.9777 101.476C33.8597 101.428 33.7263 101.382 33.5771 101.339C33.4282 101.296 33.2753 101.256 33.1186 101.219C32.962 101.182 32.809 101.159 32.659 101.15L31.7018 103.304ZM26.3013 103.727C26.1699 103.915 26.0239 104.02 25.8638 104.041C25.7014 104.062 25.5404 104.02 25.3783 103.914L22.5329 102.056C22.3194 101.917 22.205 101.773 22.1932 101.629C22.1817 101.484 22.2334 101.323 22.3478 101.145L25.6388 96.0249C25.6865 95.9506 25.7309 95.9139 25.7723 95.9145C25.8136 95.9151 25.8767 95.9431 25.9579 95.996L26.5062 96.354C26.5722 96.3974 26.6164 96.4391 26.6391 96.4807C26.6606 96.5206 26.6471 96.5779 26.5995 96.6519L23.4944 101.483L25.6259 102.875L26.2288 102.083C26.7644 101.38 27.2267 100.799 27.6149 100.341C28.0031 99.8839 28.3646 99.5325 28.6997 99.2876C29.0349 99.0429 29.3657 98.898 29.6922 98.8532C30.019 98.8084 30.3851 98.8448 30.7903 98.9619C30.8442 98.9761 30.901 98.9972 30.961 99.0259C31.0209 99.0548 31.0382 99.1132 31.0126 99.202L30.87 99.7407C30.8402 99.8686 30.7432 99.9215 30.5802 99.8992C30.324 99.8584 30.091 99.859 29.8813 99.9009C29.6712 99.9432 29.4434 100.058 29.1975 100.245C28.9519 100.432 28.6702 100.712 28.3528 101.084C28.0349 101.456 27.6384 101.955 27.1624 102.582L26.3013 103.727ZM19.946 99.9822C19.8886 100.049 19.8378 100.081 19.7942 100.078C19.7503 100.074 19.7004 100.048 19.6476 100.002L19.1045 99.5264C19.0448 99.4741 19.0104 99.4264 19.0046 99.3859C18.9986 99.3457 19.0244 99.2922 19.0818 99.2254L22.413 95.3607L22.3734 95.326C21.9958 95.4405 21.6518 95.5463 21.343 95.645C21.0326 95.7421 20.6911 95.8384 20.3184 95.9339L16.8128 96.9573C16.6487 97.0128 16.5167 97.038 16.4169 97.0325C16.317 97.027 16.2025 96.9677 16.0703 96.8517L15.8117 96.6256C15.7007 96.5284 15.6353 96.4125 15.6166 96.2789C15.598 96.1455 15.6465 96.0122 15.7612 95.8789L19.8261 91.1631C19.8777 91.103 19.9225 91.0746 19.9598 91.0784C19.9974 91.0819 20.0461 91.1099 20.1055 91.162L20.6521 91.6406C20.7049 91.6868 20.7376 91.7299 20.7497 91.7698C20.7617 91.8095 20.7419 91.8598 20.6903 91.9199L17.3935 95.7444L17.4532 95.7965C17.6363 95.7462 17.8036 95.6964 17.9559 95.6481C18.108 95.5998 18.26 95.5515 18.4121 95.503C18.5642 95.4547 18.7194 95.4061 18.8775 95.3572C19.0359 95.3083 19.2066 95.2586 19.3897 95.208L22.9759 94.2022C23.1466 94.1525 23.2852 94.1366 23.3922 94.1539C23.4993 94.1715 23.6089 94.2294 23.7216 94.328L23.95 94.5281C24.0691 94.6325 24.1379 94.7482 24.156 94.8757C24.1744 95.0027 24.1259 95.1331 24.0106 95.2667L19.946 99.9822ZM16.2301 88.1136C16.0361 87.8855 15.816 87.6882 15.5704 87.5222C15.3251 87.3557 15.1028 87.2304 14.9039 87.146C14.8193 87.1145 14.7737 87.078 14.7673 87.037C14.7613 86.9956 14.7665 86.9505 14.7823 86.9016L15.0322 86.3363C15.0746 86.2061 15.1607 86.161 15.2884 86.2021C15.6468 86.3351 15.9804 86.53 16.2875 86.7889C16.5959 87.0459 16.8662 87.3132 17.1006 87.5885C17.7287 88.3265 17.984 89.0844 17.8658 89.8621C17.7476 90.6403 17.2458 91.4118 16.3603 92.1773C15.934 92.5457 15.5024 92.8231 15.0655 93.0087C14.6282 93.1944 14.201 93.2901 13.7838 93.2953C13.3666 93.3011 12.9675 93.212 12.5862 93.029C12.2051 92.8459 11.8577 92.57 11.5432 92.2007C11.3148 91.9324 11.1231 91.6527 10.9676 91.3618C10.8127 91.0709 10.7011 90.7565 10.6336 90.419C10.6067 90.2791 10.6595 90.1984 10.7917 90.177L11.3811 90.0347C11.4382 90.0203 11.4849 90.0176 11.5217 90.0266C11.5584 90.0359 11.5857 90.0847 11.6037 90.1741C11.6677 90.3985 11.7564 90.6246 11.8697 90.8528C11.983 91.081 12.1311 91.3025 12.3136 91.5171C12.5423 91.7855 12.7927 91.9679 13.0653 92.0645C13.3379 92.1605 13.6188 92.1918 13.9109 92.1544C14.203 92.1174 14.4913 92.0255 14.7797 91.8754C15.0677 91.725 15.3435 91.5362 15.6097 91.306C15.8763 91.0755 16.1041 90.8378 16.2972 90.5891C16.4886 90.3424 16.6234 90.0833 16.7001 89.8132C16.7767 89.5431 16.7804 89.2689 16.7144 88.9881C16.6487 88.7073 16.4872 88.4155 16.2301 88.1136ZM13.0533 82.7683C13.1348 82.7162 13.1976 82.6968 13.2423 82.7102C13.2871 82.7234 13.3333 82.7671 13.3804 82.8417L13.7264 83.39C13.7737 83.4646 13.7935 83.5254 13.7864 83.5716C13.7792 83.6179 13.7353 83.6674 13.6538 83.7194L8.86878 86.7883L9.96397 88.5228C10.0156 88.6047 10.0334 88.6694 10.0165 88.7169C9.99782 88.7655 9.95967 88.8083 9.90056 88.8461L9.46013 89.1287C9.39357 89.1712 9.3336 89.1917 9.27822 89.1906C9.22457 89.1882 9.17206 89.1457 9.12042 89.0639L6.28046 84.5659C6.22393 84.4762 6.207 84.4086 6.22996 84.3623C6.25463 84.3149 6.29939 84.2706 6.36596 84.2278L6.80638 83.9453C6.86578 83.9074 6.91886 83.8889 6.96821 83.8889C7.01584 83.8897 7.06748 83.9352 7.12401 84.0248L8.26854 85.8371L13.0533 82.7683ZM2.60612 76.5513C2.51804 76.5912 2.45291 76.6016 2.41044 76.5822C2.36798 76.5629 2.3281 76.5108 2.29194 76.4301L2.02252 75.8298C1.98637 75.7494 1.97403 75.6846 1.98465 75.6337C1.99641 75.5845 2.04634 75.54 2.13414 75.4998L8.00859 72.8214C8.09668 72.7812 8.16095 72.7736 8.20083 72.7994C8.24215 72.8266 8.28031 72.8795 8.31646 72.9599L8.58588 73.5602C8.62203 73.6406 8.63638 73.7048 8.62662 73.7479C8.61744 73.7907 8.56866 73.8324 8.48058 73.8726L2.60612 76.5513ZM5.91233 78.7046C5.69169 78.213 5.59041 77.7838 5.60676 77.4128C5.62398 77.0432 5.70288 76.7257 5.84462 76.4622C5.98722 76.2008 6.16339 75.9871 6.3737 75.8231C6.58431 75.6592 6.77339 75.5391 6.94124 75.4625C7.22902 75.3312 7.52513 75.2618 7.82984 75.2537C8.13426 75.2462 8.42205 75.2968 8.69261 75.4064C8.96318 75.516 9.21022 75.6751 9.43374 75.8836C9.65754 76.0918 9.836 76.3454 9.96971 76.6433L11.136 79.2416C11.2373 79.4669 11.2411 79.6474 11.1475 79.7818C11.054 79.9169 10.9275 80.0207 10.7674 80.0936L5.31238 82.5809C5.22458 82.6211 5.15945 82.6315 5.11698 82.6121C5.07452 82.5924 5.03636 82.5444 5.00365 82.4719L4.72878 81.8596C4.68918 81.7711 4.67512 81.7023 4.68861 81.6575C4.70209 81.6121 4.75288 81.5696 4.84068 81.5297L6.78286 80.6439L5.91233 78.7046ZM7.63416 80.2558L10.0678 79.1462L9.21453 77.2451C9.09172 76.9712 8.94912 76.7667 8.78845 76.634C8.62691 76.499 8.46049 76.4125 8.29006 76.3758C8.11877 76.3373 7.95608 76.3341 7.80172 76.3659C7.64736 76.3972 7.51422 76.4385 7.40232 76.4894C7.24251 76.5623 7.10249 76.6577 6.98198 76.7757C6.86147 76.8937 6.76995 77.0328 6.70596 77.1904C6.64284 77.3503 6.61443 77.5282 6.62046 77.7243C6.62591 77.9183 6.67756 78.1251 6.7754 78.3428L7.63416 80.2558ZM1.48397 57.4062C1.7115 57.3885 1.92439 57.4143 2.12352 57.4834C2.32207 57.5522 2.4991 57.654 2.65433 57.7885C2.80984 57.923 2.93637 58.0837 3.03421 58.2714C3.13177 58.4591 3.18915 58.6673 3.20665 58.8964C3.22329 59.117 3.19747 59.3273 3.12918 59.5277C3.06061 59.7278 2.9599 59.9065 2.82648 60.063C2.69306 60.2197 2.53324 60.3469 2.34732 60.4455C2.16111 60.5442 1.95424 60.602 1.72699 60.6196C1.50836 60.6364 1.29747 60.6104 1.09433 60.5418C0.891187 60.473 0.71186 60.3718 0.556348 60.2373C0.401409 60.1029 0.274877 59.9418 0.177036 59.7544C0.0791953 59.5667 0.0218107 59.3631 0.00516921 59.1425C-0.0120462 58.9131 0.0137769 58.6986 0.0820645 58.4982C0.150639 58.2977 0.251349 58.1193 0.384481 57.9629C0.5179 57.8064 0.679724 57.6783 0.870241 57.5797C1.06076 57.4808 1.26533 57.4229 1.48397 57.4062ZM3.93458 34.346L2.97912 36.7463L4.88285 37.8588C5.29631 38.1026 5.6389 38.305 5.90573 38.4655C6.17286 38.6257 6.39293 38.7674 6.56193 38.888C6.73121 39.0089 6.86377 39.122 6.96104 39.2281C7.05601 39.3331 7.1418 39.4441 7.21841 39.5607L8.55087 36.2127L3.93458 34.346ZM10.706 26.7123C11.1389 26.9645 11.5113 27.2554 11.8241 27.5854C12.1363 27.9156 12.3721 28.2725 12.5322 28.6565C12.6917 29.0406 12.7566 29.4486 12.7267 29.8804C12.6972 30.3127 12.5549 30.7505 12.3004 31.1944C12.1773 31.4087 12.0335 31.634 11.868 31.8694C11.7024 32.1048 11.495 32.3391 11.2491 32.5736L13.4613 33.8619C13.5296 33.9015 13.5654 33.9406 13.5692 33.9785C13.5729 34.0163 13.5571 34.0655 13.5221 34.1271L13.1534 34.77C13.1181 34.8313 13.0825 34.8718 13.0458 34.8914C13.0094 34.9108 12.9569 34.9007 12.8886 34.8608L5.25499 30.4154C5.15629 30.3578 5.11784 30.2745 5.14022 30.1646C5.19273 29.6846 5.30664 29.2251 5.48195 28.7861C5.65783 28.3474 5.85093 27.9443 6.06182 27.5767C6.32493 27.1175 6.63107 26.7647 6.97997 26.5186C7.32858 26.2722 7.70417 26.1209 8.10643 26.0643C8.50898 26.0073 8.93047 26.0362 9.37176 26.1501C9.81305 26.2638 10.2578 26.4515 10.706 26.7123ZM10.1069 27.7575C9.69111 27.5154 9.31552 27.3529 8.9804 27.2699C8.64527 27.1872 8.34486 27.1727 8.08204 27.2291C7.81721 27.2843 7.58251 27.398 7.37937 27.5706C7.17479 27.7421 6.99346 27.966 6.83536 28.2416C6.72117 28.4408 6.6107 28.6776 6.50397 28.9524C6.39695 29.2271 6.32722 29.4723 6.29308 29.6872L10.3754 32.0649C10.6239 31.8214 10.8227 31.6028 10.9702 31.4079C11.1174 31.2127 11.2413 31.027 11.3423 30.8509C11.4915 30.5909 11.5891 30.3283 11.6341 30.0637C11.6812 29.8003 11.6597 29.5374 11.5713 29.2766C11.4847 29.0169 11.3214 28.7583 11.0853 28.5033C10.8488 28.2485 10.5226 27.9995 10.1069 27.7575ZM17.2369 25.8002C17.5918 26.3346 17.7657 26.8008 17.7597 27.1985C17.7531 27.5964 17.5996 27.9908 17.2983 28.3824C17.2231 28.4801 17.1221 28.597 16.9953 28.7329C16.8685 28.8688 16.7135 29.005 16.5308 29.1415C16.4171 29.2317 16.3296 29.2306 16.2677 29.1375L15.899 28.6646C15.8542 28.6071 15.8376 28.5605 15.8485 28.5244C15.8594 28.4885 15.8909 28.4512 15.9426 28.413C16.0792 28.3078 16.1781 28.2256 16.2398 28.1672C16.3012 28.1091 16.3669 28.0345 16.4367 27.944C16.6197 27.7063 16.7207 27.4775 16.7399 27.2577C16.7592 27.0377 16.6653 26.7739 16.4576 26.4665C16.4427 26.4431 16.4074 26.3879 16.3523 26.3002C16.2978 26.2126 16.2393 26.1195 16.1767 26.0203C16.1142 25.9208 16.0542 25.8294 15.9968 25.7456C15.9394 25.6611 15.903 25.6076 15.8875 25.5845L15.7346 25.7837C15.6591 25.8815 15.5779 25.9547 15.4898 26.0038C15.4023 26.053 15.2468 26.0345 15.0239 25.9497L8.853 23.7114C8.76062 23.6727 8.74684 23.6116 8.81111 23.5278L9.35168 22.8253C9.41078 22.7487 9.48309 22.727 9.56859 22.76C9.6277 22.784 9.74591 22.8288 9.92294 22.8945C10.1003 22.9601 10.308 23.0362 10.547 23.1221C10.786 23.2082 11.0417 23.3019 11.3137 23.4026C11.5859 23.5032 11.8413 23.5969 12.0806 23.6831C12.3193 23.7687 12.5291 23.8465 12.7098 23.9147C12.8903 23.983 13.0068 24.0263 13.059 24.0449L15.3004 24.9408L15.3489 24.878C15.3093 24.8135 15.217 24.6744 15.0712 24.4598C14.9257 24.245 14.7688 24.0194 14.6018 23.7823C14.4342 23.5451 14.2853 23.328 14.1542 23.1304C14.0231 22.9326 13.9533 22.8251 13.9447 22.8071C13.9364 22.7895 13.8896 22.7166 13.8047 22.5888C13.7201 22.461 13.6136 22.2996 13.4862 22.1047C13.3586 21.9101 13.2194 21.6975 13.0688 21.4679C12.9178 21.2383 12.7675 21.0116 12.6177 20.788C12.4677 20.5648 12.3305 20.3565 12.2063 20.1645C12.0823 19.9725 11.9853 19.821 11.915 19.7102C11.8617 19.635 11.8645 19.5593 11.9239 19.482L12.4401 18.8114C12.5044 18.7276 12.5666 18.7261 12.6266 18.8065L17.2369 25.8002ZM16.1592 16.5372C15.9188 16.7697 15.7948 16.991 15.7871 17.2001C15.7799 17.4094 15.8809 17.624 16.0932 17.8473L19.4011 21.3239C19.468 21.3939 19.4993 21.4523 19.495 21.4991C19.491 21.546 19.4542 21.6029 19.3845 21.6706L18.9289 22.1111C18.8655 22.1724 18.8072 22.2068 18.7544 22.2152C18.7013 22.2235 18.6417 22.1926 18.5751 22.1223L15.3963 18.7816C15.2081 18.5838 15.048 18.371 14.9163 18.1431C14.7846 17.9152 14.7085 17.6792 14.6887 17.4349C14.6689 17.1908 14.7163 16.9337 14.8305 16.6639C14.9447 16.3947 15.1535 16.1127 15.4577 15.8189L17.4329 13.9097C17.5026 13.8423 17.562 13.8154 17.6113 13.8287C17.6624 13.844 17.7143 13.8796 17.7691 13.9369L18.1212 14.307C18.182 14.3709 18.215 14.4247 18.2216 14.4701C18.2268 14.5141 18.1946 14.5696 18.1252 14.637L16.1592 16.5372ZM19.2296 12.5875C19.1788 12.5152 19.1601 12.4582 19.1733 12.4163C19.1871 12.3738 19.2241 12.331 19.2812 12.2902L19.8677 11.8706C19.9322 11.8243 19.9862 11.8021 20.0266 11.8058C20.0668 11.8096 20.1124 11.8475 20.1632 11.9195L23.103 16.0942L23.1458 16.0635C23.1245 15.6665 23.1039 15.3047 23.0818 14.9791C23.0611 14.6523 23.0488 14.2952 23.0448 13.9076L22.8855 10.2324C22.8706 10.0586 22.8775 9.9235 22.9065 9.82692C22.9352 9.73033 23.0195 9.63229 23.1624 9.52992L23.4416 9.33038C23.5612 9.24449 23.6886 9.20776 23.8218 9.22107C23.9549 9.23408 24.072 9.31303 24.1735 9.45704L27.7606 14.5511C27.8063 14.6159 27.8232 14.6665 27.8108 14.702C27.7985 14.7382 27.7601 14.7793 27.6958 14.8252L27.1056 15.2475C27.0485 15.2882 26.9991 15.3102 26.9578 15.3125C26.9165 15.3148 26.8729 15.2839 26.8273 15.2188L23.9179 11.0875L23.8533 11.1338C23.8588 11.3246 23.8671 11.5004 23.8777 11.6609C23.8886 11.8212 23.8992 11.9817 23.9101 12.1419C23.9208 12.3024 23.9311 12.466 23.9408 12.6323C23.9506 12.7989 23.9583 12.9779 23.9638 13.1691L24.0872 16.919C24.0949 17.0977 24.0774 17.2374 24.0355 17.3383C23.9933 17.4389 23.9116 17.5323 23.7899 17.6194L23.5429 17.7961C23.4143 17.888 23.2866 17.9282 23.1595 17.9158C23.0327 17.9037 22.9185 17.8256 22.8167 17.6813L19.2296 12.5875ZM28.6472 6.13687C29.0943 5.9116 29.512 5.78002 29.9005 5.74242C30.289 5.70483 30.6448 5.75052 30.9684 5.87921C31.2924 6.00761 31.5847 6.20628 31.8453 6.47494C32.1061 6.74388 32.3327 7.0724 32.525 7.45991C32.6191 7.64962 32.6722 7.81561 32.6839 7.95789C32.6957 8.10017 32.6771 8.22597 32.628 8.3347C32.5789 8.44344 32.5081 8.53829 32.4162 8.61898C32.3239 8.70024 32.2188 8.77051 32.1015 8.82979L28.7118 10.5377C28.896 10.9093 29.1037 11.2003 29.3356 11.4096C29.5668 11.6193 29.809 11.7619 30.0583 11.8385C30.3074 11.9157 30.5633 11.9328 30.8221 11.8911C31.0829 11.8486 31.342 11.7627 31.6008 11.6323C31.8619 11.5007 32.1003 11.3385 32.3198 11.1439C32.5376 10.9501 32.7092 10.7674 32.8308 10.5973C32.8977 10.4947 32.9818 10.4767 33.0839 10.5438L33.578 10.9177C33.6879 11.0007 33.7039 11.0915 33.6253 11.1907C33.4291 11.5068 33.1829 11.7766 32.8868 12.0002C32.5904 12.2234 32.2854 12.414 31.9715 12.5722C31.5322 12.7937 31.1067 12.9293 30.6947 12.9788C30.2827 13.0279 29.8905 12.9834 29.5177 12.8452C29.145 12.7067 28.7938 12.4684 28.4642 12.1303C28.1348 11.7922 27.8309 11.3423 27.5523 10.7809C27.2935 10.259 27.1314 9.75982 27.0669 9.28324C27.002 8.80695 27.023 8.36883 27.1288 7.96946C27.2347 7.57009 27.416 7.21439 27.6731 6.90207C27.9302 6.58945 28.255 6.33468 28.6472 6.13687ZM31.6071 8.04089C31.4855 7.79566 31.3452 7.5724 31.1862 7.37084C31.0275 7.16899 30.8448 7.01369 30.637 6.90611C30.4313 6.79738 30.1998 6.7459 29.943 6.75198C29.6839 6.75863 29.3984 6.84076 29.0825 6.99981C28.8237 7.13024 28.6177 7.29825 28.4685 7.50213C28.3176 7.70659 28.2163 7.92811 28.1635 8.16726C28.1104 8.40642 28.0978 8.65773 28.1293 8.91858C28.1606 9.17942 28.2292 9.43651 28.3351 9.68984L31.6071 8.04089ZM41.5797 7.80983C41.8666 7.72857 42.1372 7.61087 42.3902 7.45702C42.6436 7.30288 42.8499 7.15279 43.01 7.00675C43.074 6.94255 43.1262 6.91653 43.1658 6.92809C43.2054 6.93995 43.2438 6.96366 43.2811 6.99894L43.684 7.46598C43.783 7.55968 43.7873 7.65743 43.6963 7.75662C43.4257 8.02788 43.1093 8.25055 42.7469 8.42146C42.3854 8.59468 42.0307 8.72887 41.6844 8.82661C40.7551 9.08891 39.9658 9.00215 39.3162 8.56548C38.6666 8.12909 38.1845 7.34452 37.8701 6.21235C37.7186 5.66723 37.6517 5.15595 37.6692 4.67821C37.6867 4.20018 37.7811 3.76987 37.9524 3.38612C38.1237 3.00294 38.3722 2.67558 38.6981 2.40461C39.0235 2.13393 39.4186 1.93295 39.8831 1.80165C40.2211 1.70651 40.5537 1.64925 40.8807 1.63017C41.2081 1.61137 41.5378 1.64231 41.8698 1.72299C42.0069 1.7577 42.0574 1.83983 42.0207 1.96967L41.8996 2.56858C41.8887 2.62642 41.8712 2.67038 41.8477 2.70016C41.8239 2.72966 41.7682 2.734 41.6804 2.71289C41.4514 2.67674 41.2107 2.66199 40.9576 2.66922C40.7046 2.67645 40.4429 2.71809 40.1726 2.79415C39.8346 2.88958 39.5649 3.0414 39.3629 3.24991C39.1615 3.45841 39.0149 3.70162 38.9251 3.98416C38.8347 4.26669 38.7957 4.56918 38.8092 4.89597C38.8227 5.22275 38.876 5.55416 38.9707 5.89482C39.0654 6.23549 39.183 6.54434 39.3248 6.82543C39.4662 7.1045 39.6421 7.33729 39.8527 7.52122C40.0633 7.70514 40.308 7.82429 40.5887 7.8827C40.869 7.94141 41.1995 7.91712 41.5797 7.80983ZM46.237 7.47495C46.2476 7.56286 46.2367 7.61983 46.2043 7.64586C46.1722 7.67217 46.1214 7.68953 46.0517 7.69791L45.3332 7.78583C45.2635 7.79421 45.2101 7.78959 45.1723 7.77194C45.135 7.7543 45.1108 7.70167 45.1005 7.61376L44.3588 1.43872C44.3473 1.34213 44.3729 1.22328 44.4354 1.08215C44.4977 0.940741 44.6334 0.857455 44.8426 0.832006L49.5323 0.259703C49.7412 0.234254 49.8927 0.282549 49.9871 0.404586C50.0815 0.526913 50.134 0.636226 50.1458 0.732525L50.8872 6.90756C50.8978 6.99547 50.8895 7.05215 50.8616 7.0776C50.8338 7.10363 50.7804 7.12098 50.7021 7.13052L49.9837 7.21844C49.9142 7.22682 49.8603 7.2222 49.823 7.20456C49.7857 7.18692 49.7613 7.13428 49.7507 7.04637L49.0644 1.33201L45.5507 1.76059L46.237 7.47495ZM55.624 0.00174692C56.1235 0.0176523 56.5533 0.101806 56.9128 0.254787C57.2724 0.407478 57.5642 0.618296 57.7882 0.886374C58.0126 1.15445 58.1762 1.46909 58.2789 1.83057C58.3816 2.19206 58.4264 2.5894 58.4129 3.02261C58.4063 3.23458 58.3747 3.40607 58.3179 3.53678C58.2614 3.66779 58.1856 3.76929 58.0912 3.84159C57.9968 3.91388 57.8898 3.96334 57.7707 3.99052C57.6514 4.0177 57.5257 4.02927 57.3946 4.02522L53.6066 3.90521C53.5937 4.32077 53.6396 4.6759 53.7446 4.97116C53.8494 5.26642 53.9954 5.50789 54.1785 5.69471C54.3612 5.88181 54.5784 6.01917 54.8258 6.10651C55.0754 6.19413 55.3439 6.24243 55.6332 6.25168C55.9247 6.26094 56.211 6.23231 56.4962 6.16608C56.7788 6.09986 57.0161 6.0212 57.2035 5.92982C57.3105 5.8714 57.3931 5.89598 57.4511 6.00385L57.7099 6.5695C57.7676 6.69501 57.7386 6.78263 57.6227 6.83237C57.3013 7.01658 56.9573 7.13602 56.5915 7.19096C56.2254 7.24591 55.867 7.26731 55.5164 7.25632C55.0255 7.24071 54.587 7.15626 54.2011 7.0027C53.8155 6.84886 53.4913 6.62155 53.2285 6.32167C52.9656 6.02149 52.7691 5.64352 52.6383 5.18834C52.5077 4.73315 52.4523 4.19179 52.4719 3.56426C52.4902 2.98096 52.5829 2.46418 52.7505 2.01363C52.918 1.56365 53.1427 1.18829 53.4241 0.887241C53.7053 0.586775 54.033 0.360629 54.4063 0.208806C54.7799 0.0566927 55.1856 -0.0121341 55.624 0.00174692ZM57.3315 3.09433C57.3398 2.82046 57.3217 2.55644 57.2767 2.30311C57.2322 2.04978 57.1447 1.82566 57.0127 1.63132C56.8827 1.43728 56.7031 1.28112 56.4744 1.16313C56.2432 1.04514 55.9534 0.980649 55.6005 0.96937C55.3112 0.960406 55.0507 1.00957 54.8235 1.11772C54.5942 1.2253 54.4005 1.37163 54.2413 1.557C54.0821 1.74208 53.9524 1.95695 53.8571 2.2016C53.7619 2.44625 53.701 2.70537 53.6749 2.97865L57.3315 3.09433ZM65.499 7.40815L65.8671 7.51746C66.045 7.56836 66.1443 7.64557 66.1658 7.74823C66.1873 7.85118 66.1862 7.94083 66.1635 8.01747L65.5877 10.3515C65.5664 10.4195 65.5406 10.462 65.5111 10.479C65.4809 10.4958 65.4448 10.5001 65.4015 10.492L64.6896 10.3593C64.6121 10.3449 64.5791 10.2804 64.5915 10.1658L64.8715 8.27571L60.3166 7.42665C60.1272 7.39137 59.9892 7.30259 59.9037 7.16089C59.8185 7.01919 59.7956 6.8396 59.8354 6.62213L60.9243 0.688569C60.9421 0.592558 60.9745 0.535877 61.0224 0.517948C61.0706 0.499729 61.1332 0.497994 61.2109 0.512453L61.845 0.630731C61.94 0.648372 62.002 0.673531 62.0318 0.706209C62.0617 0.738309 62.0677 0.802509 62.0502 0.89823L61.0044 6.59726L64.3685 7.22451L65.4144 1.52548C65.4319 1.42976 65.4626 1.3725 65.5059 1.3537C65.5498 1.3349 65.6189 1.33433 65.7139 1.35197L66.3477 1.47024C66.4255 1.4847 66.4814 1.50842 66.5153 1.54196C66.5494 1.57493 66.5578 1.63942 66.54 1.73543L65.499 7.40815ZM69.4803 2.461C69.509 2.37743 69.544 2.32855 69.5856 2.31525C69.6275 2.30166 69.6838 2.30716 69.7498 2.33L70.4301 2.56598C70.5049 2.59201 70.5543 2.62324 70.575 2.65852C70.5953 2.69322 70.5913 2.75279 70.5629 2.83666L68.9099 7.67709L68.9596 7.69444C69.2672 7.44574 69.5469 7.21786 69.7965 7.00993C70.0482 6.80259 70.3291 6.58454 70.6392 6.35521L73.5096 4.08306C73.641 3.9697 73.7541 3.89682 73.8487 3.86414C73.9434 3.83147 74.0717 3.84332 74.2372 3.90058L74.5609 4.01308C74.7 4.06108 74.8036 4.14379 74.8705 4.26062C74.9376 4.37716 74.9422 4.51916 74.8851 4.68631L72.8683 10.593C72.8425 10.6682 72.8118 10.7113 72.7757 10.722C72.7395 10.7329 72.6841 10.7254 72.6095 10.6997L71.9249 10.4623C71.8587 10.4391 71.8124 10.4117 71.7866 10.379C71.7605 10.3466 71.7602 10.2928 71.7858 10.2176L73.4215 5.42692L73.3469 5.40118C73.196 5.51714 73.0591 5.62617 72.936 5.72825C72.813 5.83062 72.6899 5.933 72.5671 6.03537C72.4437 6.13745 72.3177 6.24127 72.1895 6.34625C72.0606 6.45122 71.9212 6.56169 71.7703 6.67766L68.8184 8.96369C68.6787 9.07445 68.5559 9.14154 68.4503 9.16583C68.3447 9.18983 68.2213 9.1774 68.0802 9.12853L67.7941 9.02934C67.6449 8.97757 67.5382 8.89631 67.4739 8.78497C67.4099 8.67392 67.4065 8.53482 67.4636 8.36738L69.4803 2.461ZM79.444 13.4042C79.3648 13.5621 79.2547 13.6347 79.1135 13.6222C78.6822 13.6008 78.247 13.5126 77.8083 13.3585C77.3696 13.2043 76.9621 13.0317 76.5866 12.8403C76.0779 12.5811 75.6873 12.3154 75.4159 12.0435C75.1442 11.7717 74.9611 11.495 74.8642 11.2176C74.7672 10.9406 74.7411 10.6644 74.7861 10.3879C74.8306 10.1132 74.919 9.84398 75.0495 9.58342C75.1841 9.31505 75.3617 9.07387 75.5803 8.86305C75.799 8.65252 76.0595 8.50041 76.3602 8.41047C76.6606 8.32111 77.004 8.29798 77.3882 8.34483C77.7724 8.39196 78.1996 8.53511 78.669 8.77427L80.1019 9.50418L80.2313 9.24565C80.3254 9.05854 80.3932 8.87982 80.4319 8.71383C80.4709 8.54813 80.4678 8.383 80.4204 8.2225C80.3739 8.06026 80.2735 7.90266 80.1183 7.7517C79.9639 7.59901 79.7418 7.44863 79.4523 7.30115C79.1783 7.16147 78.8748 7.03654 78.5416 6.92636C78.2088 6.81647 77.9285 6.74301 77.701 6.70629C77.6266 6.69819 77.5718 6.67997 77.5366 6.65221C77.5013 6.62416 77.4918 6.57499 77.5079 6.50385L77.6221 5.92316C77.6264 5.87574 77.643 5.83728 77.6726 5.80749C77.7021 5.77828 77.754 5.76729 77.8289 5.77568C78.1893 5.80084 78.5746 5.88557 78.9838 6.02987C79.3932 6.17389 79.7582 6.32774 80.0793 6.49142C80.8623 6.88992 81.3457 7.35667 81.5302 7.89109C81.7141 8.4258 81.6378 9.02847 81.3016 9.69909L79.444 13.4042ZM79.6394 10.3981L78.2768 9.70401C78.1359 9.63229 77.9687 9.55942 77.7747 9.48567C77.5807 9.41135 77.3808 9.37405 77.175 9.37318C76.969 9.37231 76.7685 9.42379 76.5742 9.52761C76.3794 9.63142 76.211 9.82576 76.0684 10.11C75.9616 10.3229 75.9109 10.5224 75.9157 10.7081C75.9209 10.894 75.9694 11.0623 76.0609 11.213C76.1522 11.3634 76.2793 11.5028 76.4417 11.6297C76.6038 11.757 76.7908 11.8744 77.002 11.9819C77.0726 12.0178 77.1653 12.0629 77.2809 12.117C77.3965 12.1705 77.5277 12.2226 77.6746 12.2726C77.8215 12.3229 77.9724 12.3697 78.127 12.414C78.282 12.4582 78.4335 12.4886 78.583 12.5048L79.6394 10.3981ZM84.9294 10.4108C85.0691 10.2289 85.2195 10.1306 85.3804 10.1158C85.5434 10.1028 85.7024 10.152 85.8596 10.265L88.6201 12.2492C88.8272 12.3978 88.9351 12.5462 88.9403 12.691C88.9455 12.8362 88.8869 12.9947 88.7647 13.1676L85.2502 18.1344C85.1991 18.2064 85.1532 18.2414 85.1119 18.2388C85.0706 18.2362 85.0089 18.2056 84.9303 18.1489L84.3983 17.7666C84.334 17.7203 84.2922 17.6766 84.2709 17.6341C84.2514 17.5931 84.2675 17.5367 84.3183 17.4647L87.6342 12.7784L85.5664 11.2919L84.9291 12.0557C84.3627 12.7347 83.8755 13.294 83.4672 13.7336C83.0592 14.1731 82.6822 14.5077 82.3368 14.7373C81.9913 14.9667 81.6542 15.0965 81.3259 15.1269C80.9977 15.1567 80.6336 15.1037 80.2339 14.9687C80.1806 14.9519 80.1249 14.9282 80.0664 14.897C80.0075 14.8654 79.9929 14.8064 80.0225 14.7188L80.1889 14.187C80.2242 14.0606 80.3234 14.012 80.4853 14.0418C80.7395 14.0942 80.9722 14.104 81.1836 14.0713C81.3954 14.0387 81.6278 13.9345 81.8817 13.7587C82.1356 13.5826 82.4292 13.316 82.7629 12.9585C83.0968 12.6011 83.5152 12.1199 84.0184 11.5152L84.9294 10.4108ZM91.2868 14.7304C91.3502 14.6691 91.4035 14.6422 91.4466 14.6494C91.4899 14.6566 91.5375 14.6873 91.586 14.7382L92.0838 15.2613C92.1386 15.3192 92.1685 15.3695 92.1705 15.4103C92.1731 15.4508 92.1426 15.5019 92.0792 15.5633L88.4135 19.1067L88.4497 19.1448C88.8362 19.0653 89.1882 18.9916 89.5044 18.9219C89.8223 18.8533 90.1712 18.7889 90.5508 18.7278L94.1345 18.0297C94.3026 17.9893 94.4363 17.9765 94.5353 17.9913C94.6343 18.0057 94.743 18.0754 94.8644 18.203L95.1014 18.452C95.203 18.5587 95.2578 18.6801 95.2644 18.8149C95.271 18.9494 95.2107 19.0778 95.0842 19.2001L90.6111 23.524C90.554 23.579 90.5072 23.6033 90.4702 23.596C90.4329 23.5891 90.3873 23.557 90.3325 23.4994L89.8315 22.9728C89.783 22.9219 89.7543 22.876 89.746 22.8352C89.7376 22.7944 89.7618 22.7461 89.8186 22.6912L93.4464 19.1845L93.3919 19.1269C93.2051 19.1605 93.0338 19.1946 92.878 19.2287C92.7222 19.2631 92.5661 19.2972 92.4106 19.3317C92.2545 19.3658 92.0956 19.3999 91.9338 19.4343C91.7716 19.4682 91.5972 19.5023 91.4104 19.5355L87.7481 20.2088C87.574 20.2426 87.4342 20.2458 87.3292 20.2186C87.2242 20.1914 87.1203 20.1238 87.0171 20.0153L86.8076 19.7949C86.6983 19.6801 86.6403 19.5587 86.6337 19.43C86.6271 19.3019 86.6871 19.1767 86.8139 19.054L91.2868 14.7304ZM94.0283 26.7988C94.2007 27.0437 94.4019 27.2606 94.6311 27.4486C94.8607 27.6371 95.0707 27.7823 95.2609 27.8847C95.3424 27.924 95.3843 27.9645 95.3869 28.0062C95.3892 28.0478 95.38 28.0923 95.3596 28.1395L95.0595 28.6794C95.0053 28.8049 94.9157 28.8419 94.7924 28.7893C94.4475 28.6239 94.133 28.3989 93.8507 28.1126C93.5669 27.828 93.3219 27.5371 93.1136 27.2412C92.5552 26.4483 92.3699 25.6701 92.5584 24.9066C92.7466 24.1426 93.3167 23.4208 94.2682 22.74C94.7261 22.4127 95.1812 22.1764 95.6331 22.0318C96.0853 21.8872 96.5194 21.8314 96.9354 21.8647C97.3511 21.8976 97.7408 22.0228 98.1037 22.2406C98.4664 22.4581 98.7875 22.7649 99.0669 23.1617C99.2701 23.45 99.4357 23.7461 99.5639 24.0501C99.6919 24.3543 99.7742 24.6776 99.8109 25.02C99.8247 25.1617 99.765 25.2372 99.6313 25.2461L99.0314 25.3335C98.9734 25.3427 98.9264 25.341 98.8905 25.3286C98.8552 25.3161 98.8322 25.2646 98.8225 25.1741C98.7792 24.9448 98.7114 24.7114 98.6193 24.4737C98.5272 24.236 98.3999 24.0018 98.2375 23.7713C98.0343 23.4827 97.8016 23.2779 97.5388 23.1568C97.276 23.0359 96.9994 22.9789 96.705 22.989C96.4109 22.9989 96.1154 23.0639 95.8144 23.1868C95.514 23.31 95.2222 23.4725 94.9361 23.6773C94.6501 23.882 94.4013 24.0978 94.1864 24.3274C93.9735 24.5556 93.8157 24.8011 93.7147 25.0631C93.614 25.3248 93.5853 25.5975 93.6255 25.8832C93.6653 26.1689 93.7996 26.4743 94.0283 26.7988ZM96.7965 32.3443C96.7133 32.3931 96.6496 32.4099 96.6054 32.3949C96.5613 32.3798 96.5168 32.3341 96.4726 32.2578L96.1481 31.6962C96.1039 31.6198 96.0864 31.5585 96.0953 31.5126C96.1042 31.4663 96.1504 31.4189 96.2336 31.37L101.135 28.4931L100.108 26.7167C100.059 26.6325 100.044 26.5672 100.063 26.5203C100.084 26.4726 100.123 26.4315 100.184 26.396L100.635 26.1311C100.703 26.0911 100.764 26.0732 100.819 26.0764C100.873 26.081 100.923 26.1253 100.972 26.2094L103.634 30.8162C103.687 30.9082 103.702 30.9764 103.677 31.0215C103.65 31.0681 103.604 31.1106 103.535 31.1508L103.085 31.4154C103.024 31.451 102.97 31.4674 102.921 31.4654C102.873 31.4625 102.823 31.4154 102.77 31.3234L101.697 29.4671L96.7965 32.3443ZM106.773 39.1341C106.862 39.0983 106.928 39.091 106.969 39.1124C107.011 39.1338 107.049 39.1879 107.081 39.27L107.322 39.8822C107.354 39.9644 107.364 40.0297 107.35 40.08C107.337 40.1286 107.285 40.1709 107.195 40.2067L101.203 42.6049C101.113 42.6408 101.048 42.6451 101.009 42.6177C100.97 42.5885 100.934 42.5338 100.902 42.452L100.66 41.8395C100.628 41.7573 100.617 41.6929 100.628 41.6501C100.64 41.6075 100.69 41.5685 100.78 41.5324L106.773 39.1341ZM103.57 36.827C103.768 37.3284 103.849 37.7619 103.815 38.1321C103.781 38.5002 103.687 38.8134 103.533 39.0702C103.379 39.3247 103.193 39.5297 102.975 39.6836C102.757 39.8371 102.563 39.9485 102.392 40.017C102.098 40.1344 101.799 40.1899 101.494 40.1833C101.19 40.1769 100.905 40.1124 100.64 39.9904C100.374 39.8681 100.135 39.6975 99.9211 39.4788C99.7076 39.2599 99.541 38.9985 99.4213 38.6943L98.3769 36.0438C98.2865 35.8139 98.2911 35.6338 98.3907 35.5036C98.4902 35.3732 98.6216 35.2755 98.7849 35.2101L104.349 32.9834C104.439 32.9475 104.505 32.94 104.546 32.9614C104.588 32.9831 104.624 33.0328 104.653 33.1068L104.899 33.7315C104.935 33.8217 104.945 33.8911 104.93 33.9354C104.914 33.9796 104.862 34.0198 104.772 34.0557L102.791 34.8486L103.57 36.827ZM101.922 35.1962L99.4397 36.1896L100.203 38.1289C100.314 38.4085 100.446 38.6191 100.601 38.7596C100.756 38.9019 100.918 38.9965 101.087 39.041C101.256 39.0873 101.418 39.0983 101.574 39.074C101.73 39.05 101.865 39.015 101.979 38.9693C102.142 38.9039 102.286 38.8154 102.412 38.7032C102.538 38.591 102.636 38.4565 102.707 38.3021C102.777 38.1454 102.814 37.969 102.817 37.7729C102.821 37.5786 102.779 37.3698 102.691 37.1477L101.922 35.1962ZM106.516 54.6369C106.289 54.6545 106.076 54.6288 105.876 54.5597C105.678 54.4909 105.501 54.3891 105.346 54.2546C105.19 54.1201 105.064 53.9593 104.966 53.7717C104.868 53.584 104.811 53.3758 104.793 53.1467C104.777 52.9261 104.803 52.7158 104.871 52.5154C104.939 52.3153 105.04 52.1366 105.174 51.9801C105.307 51.8234 105.467 51.6962 105.653 51.5975C105.839 51.4989 106.046 51.4411 106.273 51.4235C106.492 51.4067 106.703 51.4327 106.906 51.5012C107.109 51.5701 107.288 51.6713 107.444 51.8058C107.599 51.9402 107.725 52.1013 107.823 52.2887C107.921 52.4764 107.978 52.68 107.995 52.9006C108.012 53.13 107.986 53.3445 107.918 53.5449C107.849 53.7453 107.749 53.9238 107.616 54.0802C107.482 54.2367 107.32 54.3648 107.13 54.4634C106.939 54.5623 106.735 54.6201 106.516 54.6369ZM102.138 67.6955C102.318 67.9737 102.551 68.2065 102.837 68.3942C103.122 68.5819 103.505 68.7826 103.984 68.9954L106.969 70.3173C107.182 70.4029 107.318 70.5223 107.377 70.6759C107.436 70.8291 107.432 71.0298 107.366 71.2771L106.517 74.4394C106.442 74.721 106.338 74.8807 106.205 74.9174C106.072 74.9547 105.917 74.9489 105.739 74.9006L100.569 73.4917L100.444 73.8561C100.379 74.0304 100.293 74.1239 100.185 74.1357C100.077 74.1476 99.9865 74.1389 99.9128 74.1094L97.7023 73.3561C97.5922 73.326 97.5497 73.2641 97.575 73.1701L97.764 72.4662C97.7844 72.3893 97.8507 72.3615 97.9634 72.3829L99.8003 72.8011L101.099 67.9618L99.2784 67.3282C99.219 67.3123 99.1829 67.2866 99.17 67.2507C99.1565 67.2152 99.1547 67.1802 99.1639 67.146L99.3527 66.4419C99.3619 66.4077 99.378 66.3823 99.4006 66.3655C99.423 66.349 99.4695 66.3453 99.5395 66.3554L101.851 66.834C101.955 66.8534 102.044 66.9005 102.12 66.976C102.195 67.0515 102.218 67.1767 102.189 67.3522L102.138 67.6955ZM105.683 73.6898L106.352 71.1932L104.332 70.3132C103.894 70.12 103.53 69.9593 103.246 69.8317C102.962 69.7039 102.727 69.5894 102.545 69.4893C102.363 69.3893 102.218 69.2927 102.109 69.199C102.003 69.1059 101.905 69.0058 101.815 68.8988L100.881 72.3812L105.683 73.6898ZM99.2345 82.0543C98.7884 81.827 98.4001 81.5574 98.0696 81.2457C97.7396 80.9337 97.4843 80.5907 97.3032 80.2162C97.1225 79.8417 97.035 79.438 97.0407 79.0051C97.0464 78.5719 97.1641 78.1268 97.3936 77.6693C97.5044 77.4484 97.6355 77.2153 97.7878 76.9709C97.9399 76.7265 98.1342 76.481 98.3666 76.2329L96.0864 75.0715C96.0158 75.0357 95.9777 74.9986 95.9722 74.9613C95.9662 74.9235 95.9791 74.8734 96.0109 74.8101L96.3432 74.1473C96.375 74.0842 96.4083 74.042 96.4439 74.0201C96.4792 73.9986 96.5323 74.0059 96.6026 74.0417L104.471 78.0496C104.573 78.1013 104.616 78.1823 104.6 78.2931C104.574 78.7755 104.486 79.2408 104.335 79.689C104.184 80.1369 104.013 80.5502 103.823 80.929C103.586 81.4024 103.3 81.772 102.965 82.0375C102.631 82.3033 102.264 82.4753 101.866 82.5549C101.467 82.6341 101.045 82.6292 100.598 82.5404C100.151 82.4519 99.6965 82.2897 99.2345 82.0543ZM99.7745 80.977C100.203 81.1954 100.587 81.3362 100.926 81.4004C101.265 81.4638 101.566 81.4611 101.826 81.3903C102.087 81.32 102.315 81.1936 102.508 81.0097C102.703 80.8267 102.872 80.593 103.014 80.309C103.117 80.1037 103.214 79.8611 103.306 79.5806C103.397 79.3003 103.453 79.0513 103.475 78.835L99.2672 76.6916C99.0325 76.9486 98.846 77.178 98.7097 77.381C98.5737 77.5843 98.4601 77.7766 98.3691 77.9579C98.2346 78.2263 98.152 78.4938 98.1218 78.7607C98.0891 79.0262 98.1253 79.2873 98.228 79.543C98.329 79.7974 98.5066 80.0461 98.7565 80.2876C99.0064 80.5288 99.3461 80.7587 99.7745 80.977Z" fill="#A38C6C"/>
</svg>
