<svg width="40" height="40" viewBox="0 0 40 40" fill="none" xmlns="http://www.w3.org/2000/svg">
<path fill-rule="evenodd" clip-rule="evenodd" d="M27.3643 4.33832C27.2879 3.77076 26.8052 3.33331 26.221 3.33331C25.5838 3.33331 25.0672 3.85391 25.0672 4.4961V5.78168H14.9469V4.4961L14.9364 4.33832C14.86 3.77076 14.3772 3.33331 13.7931 3.33331C13.1558 3.33331 12.6392 3.85391 12.6392 4.4961V5.81055C7.91091 6.1362 5 9.19985 5 14.143V28.1734C5 33.4787 8.2639 36.6666 13.4938 36.6666H26.5061C31.7422 36.6666 34.9999 33.5321 34.9999 28.2907V14.143C35.0149 9.19809 32.1134 6.13529 27.3749 5.81042V4.4961L27.3643 4.33832ZM25.0672 8.10726V9.59809L25.0777 9.75587C25.1541 10.3234 25.6369 10.7609 26.221 10.7609C26.8583 10.7609 27.3749 10.2403 27.3749 9.59809V8.14163C30.8225 8.42847 32.7033 10.5045 32.6922 14.1394V14.8128H7.30768V14.143C7.30768 10.5104 9.19875 8.42994 12.6392 8.14186V9.59809L12.6497 9.75587C12.7261 10.3234 13.2089 10.7609 13.7931 10.7609C14.4303 10.7609 14.9469 10.2403 14.9469 9.59809V8.10726H25.0672ZM7.30768 17.1384V28.1734C7.30768 32.1778 9.52253 34.3411 13.4938 34.3411H26.5061C30.4909 34.3411 32.6922 32.223 32.6922 28.2907L32.6922 17.1384H7.30768ZM28.002 22.0305C28.002 21.3883 27.4854 20.8677 26.8481 20.8677L26.6773 20.8783C26.1141 20.9553 25.68 21.4418 25.68 22.0305C25.68 22.6727 26.1966 23.1933 26.8481 23.1933L27.0047 23.1827C27.5679 23.1057 28.002 22.6192 28.002 22.0305ZM20.0213 20.8677C20.6585 20.8677 21.1751 21.3883 21.1751 22.0305C21.1751 22.6192 20.7411 23.1057 20.1779 23.1827L20.0213 23.1933C19.3698 23.1933 18.8532 22.6727 18.8532 22.0305C18.8532 21.4418 19.2873 20.9553 19.8505 20.8783L20.0213 20.8677ZM14.334 22.0305C14.334 21.3883 13.8175 20.8677 13.1802 20.8677L13.0094 20.8783C12.4462 20.9553 12.0121 21.4418 12.0121 22.0305C12.0121 22.6727 12.5287 23.1933 13.166 23.1933L13.3368 23.1827C13.9 23.1057 14.334 22.6192 14.334 22.0305ZM26.8481 26.8933C27.4854 26.8933 28.002 27.4139 28.002 28.0561C28.002 28.6448 27.5679 29.1313 27.0047 29.2083L26.8481 29.2189C26.1966 29.2189 25.68 28.6983 25.68 28.0561C25.68 27.4675 26.1141 26.9809 26.6773 26.904L26.8481 26.8933ZM21.1751 28.0561C21.1751 27.4139 20.6585 26.8933 20.0213 26.8933L19.8505 26.904C19.2873 26.9809 18.8532 27.4675 18.8532 28.0561C18.8532 28.6983 19.3698 29.2189 20.0213 29.2189L20.1779 29.2083C20.7411 29.1313 21.1751 28.6448 21.1751 28.0561ZM13.1802 26.8933C13.8175 26.8933 14.334 27.4139 14.334 28.0561C14.334 28.6448 13.9 29.1313 13.3368 29.2083L13.166 29.2189C12.5287 29.2189 12.0121 28.6983 12.0121 28.0561C12.0121 27.4675 12.4462 26.9809 13.0094 26.904L13.1802 26.8933Z" fill="#071141"/>
</svg>
