<svg width="73" height="64" viewBox="0 0 73 64" fill="none" xmlns="http://www.w3.org/2000/svg">
<path d="M47.3445 35.9626C46.1505 36.1675 45.4853 37.0097 44.8938 37.7493C44.2892 38.5096 43.2754 40.2911 42.2916 40.3241C37.1627 40.294 31.4757 38.1642 27.9111 34.5571C27.2422 33.8225 27.848 31.8699 27.9829 30.9125C28.1173 29.9825 28.2644 28.9257 27.5926 27.9353C26.9872 27.0444 22.9608 24.7844 21.646 24.2507C20.7769 23.8985 20.0065 23.8202 19.3302 24.0235C16.8305 24.8927 15.4007 29.1797 15.2339 30.136C14.6971 32.2469 15.5984 34.4176 17.9009 36.5722C23.7486 42.4922 39.2553 48.7882 47.7566 48.893C49.3499 48.9767 50.7061 48.7985 51.8092 48.3629C52.8888 47.9367 53.7292 47.2629 54.3157 46.3533C54.7934 45.7571 57.0536 41.5942 55.9499 39.1653C55.6395 38.5577 55.0453 38.0621 54.1906 37.6926C52.8866 37.1277 48.4168 35.7768 47.3445 35.9626Z" fill="url(#paint0_linear_348_1106)"/>
<g opacity="0.5" filter="url(#filter0_f_348_1106)">
<path d="M47.5789 34.8756C46.4164 35.0805 45.7686 35.9227 45.1927 36.6624C44.604 37.4227 43.6169 39.2041 42.6589 39.2372C37.665 39.207 32.1277 37.0773 28.6569 33.4701C28.0056 32.7355 28.5954 30.7829 28.7269 29.8256C28.8577 28.8955 29.001 27.8387 28.3468 26.8484C27.7573 25.9574 23.8368 23.6974 22.5567 23.1637C21.7104 22.8115 20.9603 22.7332 20.3018 22.9365C17.8679 23.8058 16.4757 28.0927 16.3133 29.0491C15.7906 31.1599 16.6682 33.3307 18.9101 35.4852C24.6039 41.4053 39.7026 47.7012 47.9802 47.806C49.5315 47.8897 50.852 47.7116 51.9261 47.276C52.9773 46.8497 53.7956 46.1759 54.3666 45.2663C54.8317 44.6701 57.0325 40.5073 55.9579 38.0783C55.6556 37.4707 55.077 36.9752 54.2449 36.6056C52.9752 36.0407 48.623 34.6898 47.5789 34.8756Z" fill="url(#paint1_linear_348_1106)"/>
</g>
<g filter="url(#filter1_b_348_1106)">
<mask id="path-3-outside-1_348_1106" maskUnits="userSpaceOnUse" x="24.5227" y="2.26088" width="43" height="44" fill="black">
<rect fill="white" x="24.5227" y="2.26088" width="43" height="44"/>
<path fill-rule="evenodd" clip-rule="evenodd" d="M50.5293 3.27732C50.0779 3.21103 49.6243 3.34774 49.2636 3.64188C48.8927 3.94016 48.6609 4.37101 48.6105 4.85364C48.5037 5.82926 49.191 6.71167 50.1423 6.82145C56.703 7.57129 61.8024 12.8057 62.5401 19.5459C62.6389 20.4491 63.3786 21.1305 64.2614 21.1305C64.3279 21.1305 64.3924 21.1264 64.459 21.1181C64.9205 21.0663 65.3317 20.8323 65.6219 20.4594C65.9102 20.0866 66.0412 19.6226 65.9888 19.1482C65.0697 10.7384 58.7146 4.21151 50.5293 3.27732ZM50.6551 10.4948C49.6917 10.3126 48.8069 10.9423 48.6234 11.9054C48.44 12.8686 49.0568 13.809 49.994 13.9975C52.8158 14.561 54.9947 16.798 55.5469 19.698V19.7001C55.7041 20.5348 56.4217 21.1417 57.2481 21.1417C57.3589 21.1417 57.4698 21.1314 57.5827 21.1107C58.5199 20.918 59.1367 19.9797 58.9532 19.0144C58.1289 14.6832 54.8737 11.3379 50.6551 10.4948ZM53.857 30.395C54.7707 29.8554 55.8027 29.246 57.1045 29.5296C58.2836 29.7844 62.3027 33.1255 63.4032 34.2834C64.1247 35.0415 64.5258 35.8245 64.5883 36.6075C64.6972 39.6793 60.6217 43.1862 59.8799 43.6233C58.8943 44.3503 57.7475 44.7169 56.4595 44.7169C55.1433 44.7169 53.676 44.3337 52.0756 43.5694C43.3926 39.8575 30.1281 26.5406 26.621 17.7165C25.1657 14.4313 25.1557 11.7219 26.5968 9.68575C27.1712 8.73084 30.4465 4.73929 33.3792 4.86564C34.1592 4.934 34.9171 5.34413 35.6608 6.08983C36.7855 7.21873 39.9661 11.347 40.212 12.5588C40.4841 13.9052 39.8875 14.9761 39.3574 15.9165C39.2443 16.1186 39.092 16.3585 38.9251 16.6213C38.2917 17.6188 37.4486 18.9465 37.7469 19.7941C39.8855 25.1714 44.8256 29.8631 50.0782 32.067C50.8905 32.3694 52.1861 31.4998 53.1569 30.8482C53.4098 30.6784 53.6407 30.5234 53.8352 30.4078L53.857 30.395Z"/>
</mask>
<path fill-rule="evenodd" clip-rule="evenodd" d="M50.5293 3.27732C50.0779 3.21103 49.6243 3.34774 49.2636 3.64188C48.8927 3.94016 48.6609 4.37101 48.6105 4.85364C48.5037 5.82926 49.191 6.71167 50.1423 6.82145C56.703 7.57129 61.8024 12.8057 62.5401 19.5459C62.6389 20.4491 63.3786 21.1305 64.2614 21.1305C64.3279 21.1305 64.3924 21.1264 64.459 21.1181C64.9205 21.0663 65.3317 20.8323 65.6219 20.4594C65.9102 20.0866 66.0412 19.6226 65.9888 19.1482C65.0697 10.7384 58.7146 4.21151 50.5293 3.27732ZM50.6551 10.4948C49.6917 10.3126 48.8069 10.9423 48.6234 11.9054C48.44 12.8686 49.0568 13.809 49.994 13.9975C52.8158 14.561 54.9947 16.798 55.5469 19.698V19.7001C55.7041 20.5348 56.4217 21.1417 57.2481 21.1417C57.3589 21.1417 57.4698 21.1314 57.5827 21.1107C58.5199 20.918 59.1367 19.9797 58.9532 19.0144C58.1289 14.6832 54.8737 11.3379 50.6551 10.4948ZM53.857 30.395C54.7707 29.8554 55.8027 29.246 57.1045 29.5296C58.2836 29.7844 62.3027 33.1255 63.4032 34.2834C64.1247 35.0415 64.5258 35.8245 64.5883 36.6075C64.6972 39.6793 60.6217 43.1862 59.8799 43.6233C58.8943 44.3503 57.7475 44.7169 56.4595 44.7169C55.1433 44.7169 53.676 44.3337 52.0756 43.5694C43.3926 39.8575 30.1281 26.5406 26.621 17.7165C25.1657 14.4313 25.1557 11.7219 26.5968 9.68575C27.1712 8.73084 30.4465 4.73929 33.3792 4.86564C34.1592 4.934 34.9171 5.34413 35.6608 6.08983C36.7855 7.21873 39.9661 11.347 40.212 12.5588C40.4841 13.9052 39.8875 14.9761 39.3574 15.9165C39.2443 16.1186 39.092 16.3585 38.9251 16.6213C38.2917 17.6188 37.4486 18.9465 37.7469 19.7941C39.8855 25.1714 44.8256 29.8631 50.0782 32.067C50.8905 32.3694 52.1861 31.4998 53.1569 30.8482C53.4098 30.6784 53.6407 30.5234 53.8352 30.4078L53.857 30.395Z" fill="#0DB5EB" fill-opacity="0.3"/>
<path d="M49.2636 3.64188L49.8903 4.42114L49.8954 4.41695L49.2636 3.64188ZM50.5293 3.27732L50.3841 4.26671C50.3947 4.26827 50.4053 4.26965 50.4159 4.27087L50.5293 3.27732ZM48.6105 4.85364L49.6046 4.96248L49.6051 4.95748L48.6105 4.85364ZM50.1423 6.82145L50.0277 7.81486L50.0288 7.81498L50.1423 6.82145ZM62.5401 19.5459L63.5342 19.4372L63.5342 19.4371L62.5401 19.5459ZM64.459 21.1181L64.3475 20.1243L64.3353 20.1258L64.459 21.1181ZM65.6219 20.4594L66.4111 21.0737L66.4131 21.071L65.6219 20.4594ZM65.9888 19.1482L64.9947 19.2569L64.9948 19.258L65.9888 19.1482ZM48.6234 11.9054L47.6411 11.7184V11.7184L48.6234 11.9054ZM50.6551 10.4948L50.8511 9.51417L50.841 9.51227L50.6551 10.4948ZM49.994 13.9975L49.7969 14.9779L49.7982 14.9782L49.994 13.9975ZM55.5469 19.698H56.5469C56.5469 19.6352 56.541 19.5726 56.5293 19.5109L55.5469 19.698ZM55.5469 19.7001H54.5469C54.5469 19.7621 54.5527 19.8241 54.5642 19.8851L55.5469 19.7001ZM57.5827 21.1107L57.7632 22.0942C57.7701 22.093 57.7771 22.0916 57.784 22.0902L57.5827 21.1107ZM58.9532 19.0144L59.9357 18.8277L59.9356 18.8274L58.9532 19.0144ZM57.1045 29.5296L56.8916 30.5067L56.8933 30.507L57.1045 29.5296ZM53.857 30.395L53.3485 29.5339L53.3484 29.534L53.857 30.395ZM63.4032 34.2834L62.6783 34.9723L62.6788 34.9728L63.4032 34.2834ZM64.5883 36.6075L65.5877 36.5721C65.5872 36.5573 65.5863 36.5426 65.5851 36.5279L64.5883 36.6075ZM59.8799 43.6233L59.3723 42.7617C59.3427 42.7791 59.314 42.7981 59.2863 42.8185L59.8799 43.6233ZM52.0756 43.5694L52.5066 42.667C52.4941 42.6611 52.4815 42.6553 52.4687 42.6499L52.0756 43.5694ZM26.621 17.7165L27.5503 17.3471C27.5455 17.3352 27.5405 17.3233 27.5353 17.3115L26.621 17.7165ZM26.5968 9.68575L27.413 10.2635C27.4274 10.2432 27.4409 10.2225 27.4537 10.2012L26.5968 9.68575ZM33.3792 4.86564L33.4665 3.86946C33.4518 3.86817 33.437 3.86721 33.4222 3.86657L33.3792 4.86564ZM35.6608 6.08983L36.3692 5.38405L36.3689 5.38365L35.6608 6.08983ZM40.212 12.5588L41.1922 12.3607L41.192 12.3599L40.212 12.5588ZM39.3574 15.9165L38.4862 15.4254L38.4846 15.4283L39.3574 15.9165ZM38.9251 16.6213L39.7693 17.1574V17.1574L38.9251 16.6213ZM37.7469 19.7941L36.8037 20.1261C36.8081 20.1387 36.8128 20.1512 36.8177 20.1636L37.7469 19.7941ZM50.0782 32.067L49.6913 32.9891C49.7039 32.9944 49.7166 32.9994 49.7294 33.0042L50.0782 32.067ZM53.1569 30.8482L52.5996 30.0178H52.5996L53.1569 30.8482ZM53.8352 30.4078L53.3267 29.5468L53.3244 29.5481L53.8352 30.4078ZM49.8954 4.41695C50.0555 4.28647 50.2309 4.24422 50.3841 4.26671L50.6746 2.28792C49.9248 2.17784 49.1932 2.40902 48.6317 2.86681L49.8954 4.41695ZM49.6051 4.95748C49.6285 4.73333 49.7324 4.54814 49.8903 4.42112L48.6368 2.86264C48.053 3.33218 47.6933 4.00868 47.6159 4.74979L49.6051 4.95748ZM50.257 5.82804C49.8741 5.78385 49.5552 5.41369 49.6046 4.96248L47.6165 4.74479C47.4522 6.24483 48.5079 7.63948 50.0277 7.81486L50.257 5.82804ZM63.5342 19.4371C62.7477 12.2506 57.2986 6.63285 50.2559 5.82792L50.0288 7.81498C56.1075 8.50973 60.8572 13.3607 61.5461 19.6547L63.5342 19.4371ZM64.2614 20.1305C63.9124 20.1305 63.5801 19.8569 63.5342 19.4372L61.5461 19.6547C61.6977 21.0412 62.8448 22.1305 64.2614 22.1305V20.1305ZM64.3353 20.1258C64.3082 20.1292 64.285 20.1305 64.2614 20.1305V22.1305C64.3709 22.1305 64.4767 22.1236 64.5826 22.1104L64.3353 20.1258ZM64.8329 19.8452C64.7033 20.0115 64.5336 20.1035 64.3475 20.1244L64.5705 22.1119C65.3075 22.0292 65.9601 21.653 66.411 21.0737L64.8329 19.8452ZM64.9948 19.258C65.0189 19.4756 64.9599 19.6808 64.8308 19.8478L66.4131 21.071C66.8604 20.4924 67.0635 19.7696 66.9827 19.0384L64.9948 19.258ZM50.4159 4.27087C58.1187 5.15 64.1243 11.2931 64.9947 19.2569L66.9829 19.0396C66.015 10.1837 59.3104 3.27302 50.6427 2.28377L50.4159 4.27087ZM49.6058 12.0925C49.6905 11.6479 50.0712 11.4021 50.4692 11.4774L50.841 9.51227C49.3122 9.22301 47.9233 10.2366 47.6411 11.7184L49.6058 12.0925ZM50.1912 13.0172C49.8133 12.9412 49.5207 12.5393 49.6058 12.0925L47.6411 11.7184C47.3593 13.198 48.3003 14.6769 49.7969 14.9779L50.1912 13.0172ZM56.5293 19.5109C55.9035 16.2248 53.4245 13.6628 50.1898 13.0169L49.7982 14.9782C52.2071 15.4592 54.0859 17.3713 54.5646 19.8851L56.5293 19.5109ZM56.5469 19.7001V19.698H54.5469V19.7001H56.5469ZM57.2481 20.1417C56.9205 20.1417 56.6012 19.895 56.5297 19.515L54.5642 19.8851C54.8071 21.1747 55.9228 22.1417 57.2481 22.1417V20.1417ZM57.4022 20.1271C57.3462 20.1374 57.2958 20.1417 57.2481 20.1417V22.1417C57.4221 22.1417 57.5934 22.1254 57.7632 22.0942L57.4022 20.1271ZM57.9708 19.2011C58.0559 19.6486 57.7644 20.0524 57.3813 20.1311L57.784 22.0902C59.2754 21.7837 60.2175 20.3108 59.9357 18.8277L57.9708 19.2011ZM50.4592 11.4754C54.2648 12.236 57.22 15.2562 57.9709 19.2014L59.9356 18.8274C59.0378 14.1101 55.4826 10.4398 50.8511 9.51422L50.4592 11.4754ZM57.3174 28.5525C55.5818 28.1744 54.2212 29.0185 53.3485 29.5339L54.3655 31.2561C55.3202 30.6923 56.0235 30.3175 56.8916 30.5067L57.3174 28.5525ZM64.128 33.5945C63.5281 32.9633 62.204 31.8037 60.9006 30.7811C60.2436 30.2656 59.572 29.7692 58.9798 29.3808C58.6841 29.1869 58.3967 29.0123 58.1332 28.874C57.8849 28.7437 57.5973 28.613 57.3157 28.5521L56.8933 30.507C56.8909 30.5065 56.917 30.5124 56.978 30.5374C57.0362 30.5613 57.1112 30.5964 57.2039 30.645C57.3902 30.7427 57.6188 30.88 57.8829 31.0532C58.4103 31.3991 59.0333 31.8581 59.666 32.3546C60.9421 33.3557 62.1777 34.4456 62.6783 34.9723L64.128 33.5945ZM65.5851 36.5279C65.499 35.4487 64.9529 34.4611 64.1275 33.594L62.6788 34.9728C63.2966 35.6219 63.5526 36.2003 63.5915 36.687L65.5851 36.5279ZM60.3876 44.4848C60.8903 44.1886 62.1789 43.1121 63.3208 41.7442C64.4404 40.4029 65.6562 38.5058 65.5877 36.5721L63.5889 36.6429C63.6293 37.781 62.8617 39.1733 61.7854 40.4626C60.7313 41.7254 59.6113 42.6208 59.3723 42.7617L60.3876 44.4848ZM56.4595 45.7169C57.9493 45.7169 59.3067 45.2887 60.4736 44.428L59.2863 42.8185C58.4819 43.4119 57.5456 43.7169 56.4595 43.7169V45.7169ZM51.6447 44.4718C53.3358 45.2795 54.9523 45.7169 56.4595 45.7169V43.7169C55.3344 43.7169 54.0162 43.388 52.5066 42.667L51.6447 44.4718ZM25.6917 18.0858C27.5187 22.6826 31.8214 28.3316 36.6961 33.263C41.5724 38.196 47.1669 42.5585 51.6826 44.4889L52.4687 42.6499C48.3013 40.8684 42.922 36.7164 38.1185 31.857C33.3134 26.996 29.2304 21.5744 27.5503 17.3471L25.6917 18.0858ZM25.7805 9.10804C24.0534 11.5483 24.1782 14.671 25.7067 18.1215L27.5353 17.3115C26.1533 14.1916 26.2579 11.8955 27.413 10.2635L25.7805 9.10804ZM33.4222 3.86657C31.5399 3.78547 29.728 4.99376 28.4447 6.11806C27.1219 7.27699 26.0882 8.59123 25.7399 9.17027L27.4537 10.2012C27.6798 9.82536 28.571 8.66637 29.7626 7.62239C30.9938 6.54378 32.2858 5.81946 33.3361 5.86472L33.4222 3.86657ZM36.3689 5.38365C35.5195 4.53211 34.5545 3.96481 33.4665 3.86946L33.2919 5.86183C33.7639 5.90319 34.3146 6.15616 34.9528 6.79601L36.3689 5.38365ZM41.192 12.3599C41.0909 11.8614 40.7507 11.2357 40.4093 10.6753C40.0394 10.068 39.5662 9.37873 39.0738 8.70382C38.0982 7.36669 36.9862 6.00333 36.3692 5.38405L34.9524 6.79561C35.4601 7.30524 36.5007 8.57045 37.4581 9.88262C37.9322 10.5324 38.3705 11.1729 38.7013 11.7158C38.8668 11.9876 38.9987 12.2239 39.0932 12.4176C39.1402 12.5139 39.1746 12.5931 39.1985 12.6556C39.2103 12.6865 39.2186 12.7109 39.2242 12.7292C39.2269 12.7382 39.2289 12.7451 39.2301 12.7501C39.2308 12.7525 39.2312 12.7544 39.2315 12.7557C39.2317 12.7563 39.2318 12.7568 39.2319 12.7571C39.2319 12.7575 39.232 12.7576 39.232 12.7576L41.192 12.3599ZM40.2285 16.4075C40.7415 15.4974 41.547 14.1165 41.1922 12.3607L39.2318 12.7568C39.4211 13.6938 39.0334 14.4547 38.4862 15.4254L40.2285 16.4075ZM39.7693 17.1574C39.9311 16.9025 40.1005 16.6364 40.2301 16.4046L38.4846 15.4283C38.3881 15.6008 38.2528 15.8145 38.0809 16.0853L39.7693 17.1574ZM38.6902 19.4621C38.6917 19.4662 38.6723 19.4124 38.7001 19.2594C38.7275 19.1081 38.7914 18.9128 38.8988 18.6736C39.1167 18.1886 39.4443 17.6692 39.7693 17.1574L38.0809 16.0853C37.7725 16.571 37.3619 17.2141 37.0744 17.8542C36.8111 18.4405 36.5152 19.3066 36.8037 20.1261L38.6902 19.4621ZM50.4651 31.1449C45.4352 29.0344 40.7058 24.5282 38.6762 19.4245L36.8177 20.1636C39.0651 25.8146 44.2161 30.6918 49.6913 32.9891L50.4651 31.1449ZM52.5996 30.0178C52.1008 30.3527 51.5961 30.6891 51.1273 30.9129C50.5966 31.1662 50.4133 31.1247 50.4271 31.1298L49.7294 33.0042C50.5554 33.3117 51.426 32.9865 51.989 32.7177C52.6137 32.4195 53.2422 31.9953 53.7142 31.6785L52.5996 30.0178ZM53.3244 29.5481C53.1011 29.6809 52.8448 29.8533 52.5996 30.0178L53.7142 31.6785C53.9749 31.5035 54.1803 31.366 54.346 31.2675L53.3244 29.5481ZM53.3484 29.534L53.3267 29.5468L54.3438 31.2689L54.3655 31.2561L53.3484 29.534Z" fill="url(#paint2_linear_348_1106)" mask="url(#path-3-outside-1_348_1106)"/>
</g>
<defs>
<filter id="filter0_f_348_1106" x="0.166748" y="6.8261" width="72.0834" height="57" filterUnits="userSpaceOnUse" color-interpolation-filters="sRGB">
<feFlood flood-opacity="0" result="BackgroundImageFix"/>
<feBlend mode="normal" in="SourceGraphic" in2="BackgroundImageFix" result="shape"/>
<feGaussianBlur stdDeviation="8" result="effect1_foregroundBlur_348_1106"/>
</filter>
<filter id="filter1_b_348_1106" x="0.522705" y="-21.7392" width="90.4774" height="91.4562" filterUnits="userSpaceOnUse" color-interpolation-filters="sRGB">
<feFlood flood-opacity="0" result="BackgroundImageFix"/>
<feGaussianBlur in="BackgroundImage" stdDeviation="12"/>
<feComposite in2="SourceAlpha" operator="in" result="effect1_backgroundBlur_348_1106"/>
<feBlend mode="normal" in="SourceGraphic" in2="effect1_backgroundBlur_348_1106" result="shape"/>
</filter>
<linearGradient id="paint0_linear_348_1106" x1="35.6667" y1="23.9131" x2="35.6667" y2="48.9131" gradientUnits="userSpaceOnUse">
<stop stop-color="#FFDBA9"/>
<stop offset="1" stop-color="#D5AB71"/>
</linearGradient>
<linearGradient id="paint1_linear_348_1106" x1="36.2084" y1="22.8261" x2="36.2084" y2="47.8261" gradientUnits="userSpaceOnUse">
<stop stop-color="#FFDBA9"/>
<stop offset="1" stop-color="#D5AB71"/>
</linearGradient>
<linearGradient id="paint2_linear_348_1106" x1="31.966" y1="8.09056" x2="58.5368" y2="40.2222" gradientUnits="userSpaceOnUse">
<stop stop-color="white" stop-opacity="0.25"/>
<stop offset="1" stop-color="white" stop-opacity="0"/>
</linearGradient>
</defs>
</svg>
