<svg width="63" height="58" viewBox="0 0 63 58" fill="none" xmlns="http://www.w3.org/2000/svg">
<path d="M23.8913 15.6939C16.2868 15.6939 10 21.8808 10 29.5354C10 33.3926 11.3771 36.9737 13.648 40.0089C16.1301 43.3569 19.2158 46.274 22.7088 48.5637C23.5812 49.1328 24.2986 49.0929 25.0935 48.5637C28.5668 46.274 31.6524 43.3569 34.1559 40.0089C36.4252 36.9737 37.804 33.3926 37.804 29.5354C37.804 21.8808 31.5172 15.6939 23.8913 15.6939Z" fill="url(#paint0_linear_348_1054)"/>
<g opacity="0.5" filter="url(#filter0_f_348_1054)">
<path d="M23.9252 23.4641C19.8108 23.4641 16.4093 26.7647 16.4093 30.8483C16.4093 32.906 17.1544 34.8164 18.3831 36.4356C19.726 38.2217 21.3955 39.7779 23.2854 40.9994C23.7574 41.303 24.1456 41.2817 24.5757 40.9994C26.4549 39.7779 28.1244 38.2217 29.4789 36.4356C30.7067 34.8164 31.4527 32.906 31.4527 30.8483C31.4527 26.7647 28.0512 23.4641 23.9252 23.4641Z" fill="url(#paint1_linear_348_1054)"/>
</g>
<g filter="url(#filter1_b_348_1054)">
<path d="M41.0986 1C29.6742 1 20.2295 10.2947 20.2295 21.7944C20.2295 27.5892 22.2983 32.9691 25.71 37.5289C29.4389 42.5588 34.0745 46.9412 39.3222 50.3811C40.6328 51.236 41.7106 51.176 42.9048 50.3811C48.1227 46.9412 52.7584 42.5588 56.5195 37.5289C59.9287 32.9691 62 27.5892 62 21.7944C62 10.2947 52.5552 1 41.0986 1Z" fill="#0DB5EB" fill-opacity="0.2"/>
<path d="M43.1809 50.7979C48.4473 47.326 53.1248 42.9037 56.9199 37.8284L56.5195 37.5289L56.9199 37.8283C60.384 33.1951 62.5 27.7124 62.5 21.7944C62.5 10.0146 52.8274 0.5 41.0986 0.5C29.4016 0.5 19.7295 10.0151 19.7295 21.7944C19.7295 27.7118 21.8426 33.1941 25.3087 37.8272C29.0725 42.904 33.7511 47.327 39.0481 50.7992L39.049 50.7998C39.7614 51.2646 40.4548 51.5089 41.1636 51.4998C41.8711 51.4906 42.5319 51.2298 43.1809 50.7979ZM43.1809 50.7979C43.1806 50.7981 43.1803 50.7983 43.18 50.7985L42.9048 50.3811L43.1819 50.7973C43.1816 50.7975 43.1812 50.7977 43.1809 50.7979Z" stroke="url(#paint2_linear_348_1054)" stroke-linecap="round" stroke-linejoin="round"/>
</g>
<g filter="url(#filter2_bd_348_1054)">
<mask id="path-5-inside-1_348_1054" fill="white">
<path d="M40.9473 29.3225C37.159 29.3225 34.0694 26.2926 34.0694 22.4402C34.0694 18.6178 37.159 15.4404 40.9473 15.4404C44.7381 15.4404 47.8574 18.6178 47.8574 22.4402C47.8574 26.2926 44.7381 29.3225 40.9473 29.3225Z"/>
</mask>
<path d="M40.9473 29.3225C37.159 29.3225 34.0694 26.2926 34.0694 22.4402C34.0694 18.6178 37.159 15.4404 40.9473 15.4404C44.7381 15.4404 47.8574 18.6178 47.8574 22.4402C47.8574 26.2926 44.7381 29.3225 40.9473 29.3225Z" fill="url(#paint3_linear_348_1054)"/>
<path d="M40.9473 29.1225C37.2684 29.1225 34.2694 26.181 34.2694 22.4402H33.8694C33.8694 26.4041 37.0496 29.5225 40.9473 29.5225V29.1225ZM34.2694 22.4402C34.2694 18.7243 37.2734 15.6404 40.9473 15.6404V15.2404C37.0446 15.2404 33.8694 18.5113 33.8694 22.4402H34.2694ZM40.9473 15.6404C44.6249 15.6404 47.6574 18.7255 47.6574 22.4402H48.0574C48.0574 18.5101 44.8513 15.2404 40.9473 15.2404V15.6404ZM47.6574 22.4402C47.6574 26.1799 44.6299 29.1225 40.9473 29.1225V29.5225C44.8463 29.5225 48.0574 26.4052 48.0574 22.4402H47.6574Z" fill="url(#paint4_linear_348_1054)" fill-opacity="0.5" mask="url(#path-5-inside-1_348_1054)"/>
</g>
<defs>
<filter id="filter0_f_348_1054" x="0.409302" y="7.46413" width="47.0434" height="49.7551" filterUnits="userSpaceOnUse" color-interpolation-filters="sRGB">
<feFlood flood-opacity="0" result="BackgroundImageFix"/>
<feBlend mode="normal" in="SourceGraphic" in2="BackgroundImageFix" result="shape"/>
<feGaussianBlur stdDeviation="8" result="effect1_foregroundBlur_348_1054"/>
</filter>
<filter id="filter1_b_348_1054" x="-4.77051" y="-24" width="91.7705" height="100" filterUnits="userSpaceOnUse" color-interpolation-filters="sRGB">
<feFlood flood-opacity="0" result="BackgroundImageFix"/>
<feGaussianBlur in="BackgroundImage" stdDeviation="12"/>
<feComposite in2="SourceAlpha" operator="in" result="effect1_backgroundBlur_348_1054"/>
<feBlend mode="normal" in="SourceGraphic" in2="effect1_backgroundBlur_348_1054" result="shape"/>
</filter>
<filter id="filter2_bd_348_1054" x="19.0694" y="0.440369" width="43.788" height="43.8821" filterUnits="userSpaceOnUse" color-interpolation-filters="sRGB">
<feFlood flood-opacity="0" result="BackgroundImageFix"/>
<feGaussianBlur in="BackgroundImage" stdDeviation="7.5"/>
<feComposite in2="SourceAlpha" operator="in" result="effect1_backgroundBlur_348_1054"/>
<feColorMatrix in="SourceAlpha" type="matrix" values="0 0 0 0 0 0 0 0 0 0 0 0 0 0 0 0 0 0 127 0" result="hardAlpha"/>
<feOffset dx="5" dy="5"/>
<feGaussianBlur stdDeviation="5"/>
<feColorMatrix type="matrix" values="0 0 0 0 0.15375 0 0 0 0 0.522433 0 0 0 0 0.9 0 0 0 0.5 0"/>
<feBlend mode="normal" in2="effect1_backgroundBlur_348_1054" result="effect2_dropShadow_348_1054"/>
<feBlend mode="normal" in="SourceGraphic" in2="effect2_dropShadow_348_1054" result="shape"/>
</filter>
<linearGradient id="paint0_linear_348_1054" x1="23.902" y1="15.6939" x2="23.902" y2="48.9757" gradientUnits="userSpaceOnUse">
<stop stop-color="#FFDBA9"/>
<stop offset="1" stop-color="#D5AB71"/>
</linearGradient>
<linearGradient id="paint1_linear_348_1054" x1="23.931" y1="23.4641" x2="23.931" y2="41.2192" gradientUnits="userSpaceOnUse">
<stop stop-color="#FFDBA9"/>
<stop offset="1" stop-color="#D5AB71"/>
</linearGradient>
<linearGradient id="paint2_linear_348_1054" x1="26.8787" y1="6.82506" x2="59.487" y2="40.5641" gradientUnits="userSpaceOnUse">
<stop stop-color="white" stop-opacity="0.25"/>
<stop offset="1" stop-color="white" stop-opacity="0"/>
</linearGradient>
<linearGradient id="paint3_linear_348_1054" x1="46.8799" y1="17.9472" x2="31.5211" y2="18.4446" gradientUnits="userSpaceOnUse">
<stop stop-color="white"/>
<stop offset="1" stop-color="white" stop-opacity="0.2"/>
</linearGradient>
<linearGradient id="paint4_linear_348_1054" x1="35.5547" y1="20.0971" x2="47.2626" y2="20.1613" gradientUnits="userSpaceOnUse">
<stop stop-color="white"/>
<stop offset="1" stop-color="white" stop-opacity="0"/>
</linearGradient>
</defs>
</svg>
