<svg width="68" height="60" viewBox="0 0 68 60" fill="none" xmlns="http://www.w3.org/2000/svg">
<path d="M31.1348 38.7733V35.7156C31.1348 34.9351 31.7722 34.3023 32.5584 34.3023H35.4326C35.8102 34.3023 36.1723 34.4512 36.4393 34.7163C36.7063 34.9813 36.8563 35.3408 36.8563 35.7156V38.7733C36.8539 39.0978 36.9821 39.4099 37.2124 39.6402C37.4427 39.8705 37.7561 40 38.0829 40H40.0438C40.9596 40.0023 41.8388 39.6428 42.4872 39.0008C43.1356 38.3588 43.5 37.487 43.5 36.5778V27.8669C43.5 27.1325 43.1721 26.4358 42.6046 25.9647L35.934 20.6759C34.7737 19.7486 33.1111 19.7785 31.9854 20.747L25.467 25.9647C24.8727 26.422 24.5176 27.1206 24.5 27.8669V36.5689C24.5 38.4639 26.0474 40 27.9562 40H29.8723C30.5512 40 31.103 39.4562 31.1079 38.7822L31.1348 38.7733Z" fill="#071141"/>
</svg>
