<svg width="10" height="16" viewBox="0 0 10 16" fill="none" xmlns="http://www.w3.org/2000/svg">
<path d="M0.429552 2.67248C-0.114084 2.14697 -0.114084 1.29527 0.411431 0.751633C0.683249 0.479815 1.02755 0.352966 1.38998 0.352966C1.73428 0.352966 2.07858 0.479815 2.33228 0.751633L8.65658 7.03969C8.91028 7.29339 9.05525 7.63769 9.05525 8.00012C9.05525 8.36254 8.91028 8.70685 8.65658 8.96054L2.33228 15.2486C1.80676 15.7922 0.955068 15.7922 0.411431 15.2486C-0.114084 14.7231 -0.114084 13.8533 0.429552 13.3278L5.77531 8.00012L0.429552 2.67248Z" fill="#1881E2"/>
<path d="M0.500143 2.60165L0.500151 2.60164L0.499055 2.60058C-0.00326674 2.11501 -0.00517017 1.32712 0.482741 0.821745C0.734252 0.570552 1.0522 0.452966 1.38998 0.452966C1.70987 0.452966 2.02653 0.570605 2.25917 0.819865L2.25912 0.819912L2.26177 0.822547L8.58587 7.1104C8.58594 7.11047 8.586 7.11054 8.58607 7.1106C8.8211 7.34574 8.95525 7.66461 8.95525 8.00012C8.95525 8.3357 8.82104 8.65464 8.58591 8.8898C8.5859 8.88981 8.58589 8.88982 8.58587 8.88983L2.26177 15.1777L2.26176 15.1777L2.26038 15.1791C1.77483 15.6814 0.987401 15.6832 0.482142 15.1779C-0.00411854 14.6916 -0.00412586 13.8861 0.499055 13.3997L0.499063 13.3997L0.500143 13.3986L5.8459 8.07095L5.91697 8.00012L5.8459 7.92929L0.500143 2.60165Z" stroke="url(#paint0_linear_582_6849)" stroke-opacity="0.5" stroke-width="0.2"/>
<defs>
<linearGradient id="paint0_linear_582_6849" x1="0.992875" y1="5.48651" x2="8.6656" y2="5.51151" gradientUnits="userSpaceOnUse">
<stop stop-color="white"/>
<stop offset="1" stop-color="white" stop-opacity="0"/>
</linearGradient>
</defs>
</svg>
