<svg width="22" height="27" viewBox="0 0 22 27" fill="none" xmlns="http://www.w3.org/2000/svg">
<g clip-path="url(#clip0_566_5204)">
<path d="M17.16 18.108C18.0008 17.2688 18.6676 16.272 19.1224 15.1746C19.5771 14.0772 19.8108 12.9008 19.81 11.713C19.81 6.72497 15.757 2.66797 10.779 2.66797C5.80101 2.66797 1.75101 6.72497 1.75101 11.713C1.74876 14.1043 2.69534 16.3988 4.38301 18.093C4.46509 18.1741 4.53037 18.2707 4.57515 18.377C4.61992 18.4834 4.64329 18.5976 4.64394 18.713C4.64459 18.8284 4.6225 18.9429 4.57893 19.0498C4.53536 19.1566 4.47117 19.2539 4.39001 19.336C4.30885 19.4181 4.21233 19.4833 4.10594 19.5281C3.99955 19.5729 3.88538 19.5963 3.76996 19.5969C3.65454 19.5976 3.54012 19.5755 3.43323 19.5319C3.32634 19.4883 3.22909 19.4241 3.14701 19.343C1.12793 17.3174 -0.00404629 14.5729 1.08686e-05 11.713C1.08686e-05 5.74697 4.82701 0.909973 10.781 0.909973C16.735 0.909973 21.562 5.74697 21.562 11.713C21.562 14.694 20.355 17.394 18.408 19.35L10.776 26.995L9.53401 25.75L17.16 18.108ZM13.127 13.846L12.52 12.1L10.776 14.975L9.03601 12.1L8.42801 13.845H9.05201V14.893H4.88601V13.845H5.69401L8.45401 6.85497L10.776 10.935L13.101 6.85497L15.859 13.845H16.669V14.893H12.504V13.845L13.127 13.846Z" fill="#002033" fill-opacity="0.6"/>
</g>
<defs>
<clipPath id="clip0_566_5204">
<rect width="22" height="27" fill="white"/>
</clipPath>
</defs>
</svg>
