<svg width="30" height="30" viewBox="0 0 30 30" fill="none" xmlns="http://www.w3.org/2000/svg">
<path fill-rule="evenodd" clip-rule="evenodd" d="M15.0054 2.5C11.3378 2.5 8.36472 5.4858 8.36472 9.16897C8.36472 12.8521 11.3378 15.8379 15.0054 15.8379C18.6729 15.8379 21.646 12.8521 21.646 9.16897C21.646 5.4858 18.6729 2.5 15.0054 2.5ZM15.0054 4.30959C17.6777 4.30959 19.8441 6.48521 19.8441 9.16897C19.8441 11.8527 17.6777 14.0283 15.0054 14.0283C12.333 14.0283 10.1666 11.8527 10.1666 9.16897C10.1666 6.48521 12.333 4.30959 15.0054 4.30959ZM12.2876 18.5261C11.3154 18.5936 10.3328 18.7324 9.3635 18.9401C7.49272 19.3254 5.99607 20.0954 5.35905 21.3748C5.11878 21.8752 4.99799 22.411 5.00003 22.9534C4.9993 23.4919 5.11912 24.0283 5.35077 24.5191C5.96243 25.7838 7.28475 26.4996 9.0703 26.8963L9.39016 26.9631C10.3331 27.1758 11.3161 27.3191 12.3056 27.3863C12.3899 27.411 12.5907 27.434 12.81 27.4452L12.9903 27.4519C13.083 27.4541 13.1882 27.4546 13.345 27.4546C14.7673 27.5329 16.2418 27.5101 17.7094 27.3851C18.4915 27.3316 19.2789 27.2293 20.0597 27.0795L20.6438 26.9582C22.572 26.5778 24.0157 25.8545 24.6482 24.5205C25.1172 23.5301 25.1172 22.3809 24.6485 21.3909C24.0175 20.0603 22.5921 19.343 20.6292 18.9386C19.8591 18.7742 19.0765 18.6526 18.2883 18.5749L17.7121 18.5261C15.9074 18.3669 14.0923 18.3669 12.2876 18.5261ZM17.5545 20.3288L17.5703 20.33C18.4749 20.3937 19.3739 20.5206 20.2608 20.71C21.7189 21.0104 22.7084 21.5083 23.0214 22.1685C23.2571 22.6663 23.2571 23.2447 23.0212 23.743C22.7287 24.3598 21.84 24.8364 20.5556 25.1276L20.2744 25.1872C19.37 25.389 18.4739 25.5191 17.5719 25.5809C16.1724 25.6999 14.7812 25.7214 13.3935 25.6463L12.9015 25.6379C12.7649 25.6309 12.6498 25.6178 12.5431 25.5963C11.6984 25.5326 10.9383 25.4317 10.2003 25.2854L9.75969 25.1921C8.29714 24.9055 7.29894 24.4054 6.9753 23.7362C6.86206 23.4962 6.80157 23.2254 6.80193 22.9512C6.80091 22.6785 6.86061 22.4138 6.97648 22.1723C7.29116 21.5405 8.349 20.9963 9.73257 20.7113C10.6259 20.5199 11.5245 20.393 12.4287 20.3301C14.145 20.1788 15.8547 20.1788 17.5545 20.3288Z" fill="#BDBDBD"/>
</svg>
