<svg width="50" height="50" viewBox="0 0 50 50" fill="none" xmlns="http://www.w3.org/2000/svg">
<path fill-rule="evenodd" clip-rule="evenodd" d="M24.4339 45.6535C24.6646 45.774 24.9225 45.8353 25.1805 45.8333C25.4385 45.8312 25.6944 45.7679 25.9272 45.6453L33.3603 41.6718C35.4681 40.5482 37.1188 39.2918 38.4065 37.8291C41.2065 34.6421 42.7355 30.5746 42.7082 26.3805L42.6202 12.5458C42.6118 10.9523 41.5652 9.53046 40.0173 9.0136L26.1894 4.37411C25.3567 4.09219 24.4443 4.09832 23.6264 4.38841L9.85084 9.19338C8.31137 9.73066 7.28365 11.1628 7.29204 12.7583L7.38013 26.5828C7.4074 30.783 8.98882 34.8321 11.8349 37.9864C13.1353 39.4287 14.8006 40.6667 16.9316 41.7719L24.4339 45.6535ZM22.4661 29.3936C22.7765 29.6919 23.1792 29.839 23.5819 29.8349C23.9846 29.8329 24.3852 29.6817 24.6914 29.3793L32.8146 21.3711C33.4249 20.7684 33.4186 19.8 32.802 19.2056C32.1832 18.6111 31.187 18.6151 30.5767 19.2178L23.5589 26.1352L20.6855 23.3731C20.0667 22.7786 19.0726 22.7848 18.4602 23.3874C17.8498 23.9901 17.8561 24.9584 18.4748 25.5529L22.4661 29.3936Z" fill="#1881E2"/>
</svg>
