<svg width="30" height="30" viewBox="0 0 30 30" fill="none" xmlns="http://www.w3.org/2000/svg">
<path d="M24.3261 12.7104C24.2033 12.3142 23.8666 12.0328 23.4682 11.9954L18.0564 11.4826L15.9165 6.25599C15.7587 5.87295 15.3993 5.625 15.0001 5.625C14.6008 5.625 14.2415 5.87295 14.0837 6.25689L11.9437 11.4826L6.5311 11.9954C6.13341 12.0337 5.79752 12.3142 5.67407 12.7104C5.55061 13.1066 5.66462 13.5411 5.96547 13.815L10.0561 17.5586L8.84988 23.1032C8.76161 23.5108 8.91325 23.9322 9.23741 24.1768C9.41165 24.3081 9.6155 24.375 9.82107 24.375C9.99832 24.375 10.1741 24.3251 10.3319 24.2266L15.0001 21.3153L19.6665 24.2266C20.008 24.441 20.4384 24.4214 20.7619 24.1768C21.0862 23.9315 21.2377 23.5099 21.1494 23.1032L19.9432 17.5586L24.0338 13.8158C24.3347 13.5411 24.4495 13.1073 24.3261 12.7104Z" fill="#DABD95"/>
</svg>
